<svg id="Layer_1" data-name="Layer 1" xmlns="http://www.w3.org/2000/svg" viewBox="0 0 200 200"><defs><style>.cls-1{fill:#39a82a;}.cls-2{fill:#fff;}</style></defs><rect class="cls-1" width="200" height="200"/><path class="cls-2" d="M95.88,110.07a2.23,2.23,0,1,1,2.23,2.23,2.22,2.22,0,0,1-2.23-2.23m37.48-3.6h-5.71V99.26h5.81a3.53,3.53,0,0,1,3.41,3.5,3.59,3.59,0,0,1-3.51,3.71m1,14.12h-6.71v-7.51h6.71a3.75,3.75,0,0,1,3.91,3.71,3.65,3.65,0,0,1-3.91,3.8m1.41,7.11c7.11,0,11.42-4.1,11.42-10.51a8.74,8.74,0,0,0-5.41-8.42c2.7-1.8,3.31-4.4,3.31-7.11,0-6.21-4.71-9.32-11.33-9.32H113.63v6.92h5.81v21.33h-5.81v7.11ZM90.59,92.34H77.16v14.13H69.05V92.34H55.62v6.92h5.81v21.33H55.62v7.11H69.05V113.08h8.11V127.7H90.59v-7.11H85V99.26h5.61V92.34Zm59.7,16.23a11.21,11.21,0,0,1,4.51,9c0,5.81-1.81,9.31-5,12.52s-8.51,5.21-14.82,5.21H106.21V127a11.82,11.82,0,0,0,0-22.17V78.52h7.42v6.61h7.31V72.51H83.27V85.13h7.32V78.52H98v26.34A11.83,11.83,0,0,0,98,127v8.28H48.21V113.08h5.91v-6.61H48.21V84.73H75.66V65.2h53.1V84.73h3.7c5.51,0,10.82,1.3,14.22,3.81a14.34,14.34,0,0,1,6,12.22C152.7,103.06,152.19,106.47,150.29,108.57Z"/></svg>