<svg id="Layer_1" data-name="Layer 1" xmlns="http://www.w3.org/2000/svg" viewBox="0 0 59.71 16"><defs><style>.cls-1{fill:#92cfae;}.cls-1,.cls-2,.cls-3{fill-rule:evenodd;}.cls-2{fill:#2a8288;}</style></defs><g id="Page-1"><g id="Desk"><g id="Group-2"><g id="Group"><polygon id="Fill-1" class="cls-1" points="0 0 0 14.93 14.93 0 0 0"/><polygon id="Fill-2" class="cls-2" points="1.07 16 16 16 16 1.07 1.07 16"/></g><path id="Fill-3" class="cls-3" d="M24.39,7.65c1.73,0,2.66-.85,2.66-2.44V5.12c0-1.7-1-2.37-2.66-2.37h-1.8v4.9ZM19.05,0h5.43c3.82,0,6,1.72,6,5.1v.09c0,3.38-2.31,5-5.89,5h-2V16H19.05Z"/><path id="Fill-5" class="cls-3" d="M37.52,13.25c1.7,0,2.57-.76,2.57-2.22v-.09c0-1.43-.87-2.21-2.66-2.21h-2v4.52ZM37.65,16H32V0h10V2.82H35.47l0,3.36h2.31c3.56,0,5.67,1.59,5.67,4.78v.09c0,3.14-2,4.95-5.78,4.95Z"/><polygon id="Fill-8" class="cls-3" points="46 0.02 49.72 0.02 49.72 6.91 55.45 0 59.39 0 52.9 7.58 59.71 16 55.38 16 49.72 8.83 49.72 16 46 16 46 0.02"/></g></g></g></svg>