<svg id="Layer_1" data-name="Layer 1" xmlns="http://www.w3.org/2000/svg" viewBox="0 0 162 115.68"><defs><style>.cls-1{fill:#eee;}.cls-2{fill:#3384fe;}.cls-3{fill:#cbdffe;}.cls-4{fill:#d8d8d8;}.cls-5{fill:#444;}.cls-6{fill:#fff;}.cls-7{fill:#7f7f7f;}.cls-8{fill:#2b2a29;}.cls-10,.cls-9{fill:#bcbcbc;}.cls-10{fill-rule:evenodd;}.cls-11{fill:#3c3c3c;}</style></defs><path class="cls-1" d="M98.12,34.86a7.1,7.1,0,1,0-7.1-7.1A7.1,7.1,0,0,0,98.12,34.86Z"/><path class="cls-1" d="M126.5,34.86a7.1,7.1,0,1,0-7.1-7.1A7.1,7.1,0,0,0,126.5,34.86Z"/><path class="cls-1" d="M98.12,63.26a7.1,7.1,0,1,0-7.1-7.1A7.1,7.1,0,0,0,98.12,63.26Z"/><path class="cls-1" d="M126.5,63.26a7.1,7.1,0,1,0-7.1-7.1A7.1,7.1,0,0,0,126.5,63.26Z"/><path class="cls-1" d="M154.9,34.86a7.1,7.1,0,1,0-7.1-7.1A7.1,7.1,0,0,0,154.9,34.86Z"/><path class="cls-2" d="M154.9,63.26a7.1,7.1,0,1,0-7.1-7.1A7.1,7.1,0,0,0,154.9,63.26Z"/><path class="cls-2" d="M120.29,12.11a10.71,10.71,0,1,0,5.39,2.08A10.61,10.61,0,0,0,120.29,12.11Zm-2.14,22.77a12.18,12.18,0,0,1-8.62-19.42,12.18,12.18,0,1,1,8.62,19.42Z"/><path class="cls-2" d="M106.48,43.66l-3.15-2.35L109.5,33l3.16,2.36Z"/><path class="cls-2" d="M114,33.64l-3.16-2.35a1.14,1.14,0,0,1,0,1.18,1.16,1.16,0,0,1-1.15.3l3.16,2.36A1,1,0,0,1,114,33.64Z"/><path class="cls-3" d="M111.74,28.93a9.74,9.74,0,0,1,7.47-16,9.85,9.85,0,0,1,1.7.15A9.7,9.7,0,0,1,126,15.7a10.76,10.76,0,0,0-2.68-.85,10.26,10.26,0,0,0-1.82-.16,10.47,10.47,0,0,0-10.3,8.66A10.29,10.29,0,0,0,111.74,28.93Z"/><path class="cls-2" d="M106.33,44a2,2,0,1,1-3.23-2.44Z"/><path class="cls-4" d="M101.7,37.18s2.09-.48,2.76-.62a4.71,4.71,0,0,1,1.42,0,10.16,10.16,0,0,0,2.92-.13.72.72,0,0,1-.39.79c-.53.3-1.67.3-1.93.64a2,2,0,0,1-1,.55l-1.1,1.49a1.85,1.85,0,0,1-.61-.09,1.79,1.79,0,0,1-.72-.62l-1.31-.07Z"/><path class="cls-4" d="M108.61,40.81a7.32,7.32,0,0,0,1.18,0,.39.39,0,0,0,.24-.55.39.39,0,0,0,.33-.33.56.56,0,0,0-.07-.44.37.37,0,0,0,.22-.13.42.42,0,0,0-.14-.57L109,38.16c-.07.11-.19.46,0,.6a.31.31,0,0,0-.25.2.39.39,0,0,0,.08.38.23.23,0,0,0-.27.18c-.06.23.46.81.46.81Z"/><path class="cls-5" d="M22.78,31.25a1,1,0,0,0-.69-1.3l-1.87-.57a1,1,0,0,0-1.3.69l-1,3.41a1.05,1.05,0,0,0,.69,1.31l1.87.57a1.05,1.05,0,0,0,1.3-.7Zm-5.76,2,1-3.41a2,2,0,0,1,2.42-1.29l1.87.57a2,2,0,0,1,1.29,2.42l-1,3.41a2,2,0,0,1-2.42,1.29l-1.87-.57A2,2,0,0,1,17,33.22Z"/><path class="cls-5" d="M6.74,15.83,0,38.06l8.15,2.62,2.42-11.55,4.28-10.65Z"/><path class="cls-5" d="M17,18.88a1.6,1.6,0,0,0-2,1.16l-3.63,9.13L9.1,39.24s-.36,1.65,1,2.08l6.48,2,6.81-22.42S18.65,19.37,17,18.88Z"/><path class="cls-6" d="M10.89,31l-1-.27a1.43,1.43,0,0,1-1-1.79,1.48,1.48,0,0,1,1.8-1l.94.27Z"/><path class="cls-7" d="M27.72,43.26s5.4-.85,15.37,3.54C53.6,51.43,67.92,30.92,67.92,30.92s-26.33,4.32-35.85,8.54A12,12,0,0,0,27.72,43.26Z"/><path class="cls-8" d="M47.16,113.42,47,115.55l1.81,0,0-.74,2.53.82h2.34s.28-.46-.14-.55c-.12,0-2.36-.67-2.36-.67l-1.33-1.29Z"/><path class="cls-8" d="M53.45,113.8l-.14,1.75,1.81,0,0-.74,2.52.82H60s.29-.46-.13-.55l-2.36-.67-.57-.62Z"/><path class="cls-5" d="M57.84,113.4l-4.66.85L46.44,59.37l16.42-6.54Z"/><path class="cls-7" d="M52.1,105.71l.45,3.41s4.35-20,4.54-25.64C57.28,77.63,52.1,105.71,52.1,105.71Z"/><path class="cls-5" d="M62.8,53.36,50.85,113.93s-2.58,0-3.64-.07c0-13.76-3.87-32.61-1.3-37.6-1-12.06-2-28.16-2.22-32C51.83,44.37,62.8,53.36,62.8,53.36Z"/><path class="cls-5" d="M84.28,14.16s4.66,6.16,2.11,12.94c-1.62,4.29-2.53,13.07-2.53,13.07l18-3,.4,3S89.77,44.39,84.5,46.18c-6,2-7.56-3-7.67-4.47a17.91,17.91,0,0,1-.17-1.8c8.35-6.07,0-8.63,0-11.66C76.53,25.51,84.28,14.16,84.28,14.16Z"/><path class="cls-4" d="M26.11,30.75s-.23,1.14-.35,1.5c-.22.65-2.2,1.94-3.1,3.48-.07.14-.44-.45-.12-.86a5,5,0,0,0,.65-1.26l-1.26.22-.09.49-.68-.21a.43.43,0,0,1-.33-.54.37.37,0,0,0,0-.37.68.68,0,0,1,0-.67,1.15,1.15,0,0,0,0-.47c0-.34.14-.43.14-.43a9.56,9.56,0,0,1,1.51-.54c.87-.19,2.26-.35,2.26-.35l.82-.48Z"/><path class="cls-5" d="M63.1,45.85a28.91,28.91,0,0,0,19.59-14c5.2-9.34.06-19.43.06-19.43Z"/><path class="cls-6" d="M62.79,53.48s6.95-8.91,15.43-19.55c7-8.75,6.24-23.2,6.24-23.2L79,8.88S65.57,11.74,58.46,20c-4.35,5-10.69,14.92-10.69,14.92l-3.92,8.91Z"/><path class="cls-9" d="M59.15,51.64a14,14,0,0,1,5.72-7c4.52-2.56,8.66-10.33,8.66-10.33A61.67,61.67,0,0,1,64.85,44a31.6,31.6,0,0,0-6.51,7.22Z"/><path class="cls-9" d="M78.92,8.88,78.23,9l.92,6.73a5.3,5.3,0,0,0,3.8-1A11.63,11.63,0,0,1,78.92,8.88Z"/><path class="cls-5" d="M78.23,9s2.56,22.5-16.55,26.43C30.89,41.74,24.31,46,24.31,46S27.48,35,39,33C69,27.68,78.23,9,78.23,9Z"/><path class="cls-5" d="M47.88,33.72S55.2,15.3,60.72,8.08a5.1,5.1,0,0,1,3-.71C72.66,8.3,78.23,9,78.23,9s.89,11.67-11.55,18.72S47.88,33.72,47.88,33.72Z"/><path class="cls-9" d="M78.64,28.58S77.21,32,76,34.33c-1,1.94-6.18,9.15-6.18,9.15s-.58-7,2-10c1.32-1.53,4.87-5.32,4.87-5.32Z"/><path class="cls-7" d="M83.15,14.88a3.22,3.22,0,0,1,.08,2.1,2.39,2.39,0,0,1-1.1,1.12,26.59,26.59,0,0,1-3.59,11.82c-5.42,9.34-3.75,20.84-3.75,20.84l-4.33,4.33-2.92-5S69.86,36.4,76.2,27.93c4.38-5.84,4.87-10.12,4.87-10.12a8.23,8.23,0,0,1-.71-1.74A5.49,5.49,0,0,0,83.15,14.88Z"/><path class="cls-7" d="M67.24,32.05a22.77,22.77,0,0,0,5.25-8.81,21.52,21.52,0,0,0,2.68-3.12,8.22,8.22,0,0,0,.91-.44s-.12-.18-.3-.49A20.58,20.58,0,0,0,78.11,14c-.06.8-.16,1.63-.3,2.44C77.21,19.93,75.33,27.9,67.24,32.05Z"/><path class="cls-7" d="M72.49,23.24A9,9,0,0,0,73,20.89a19.88,19.88,0,0,0,2.22-.77A21.52,21.52,0,0,1,72.49,23.24Zm3.29-4c-.29-.47-.74-1.23-1.19-2.07,2.83-1.48,2.08-7.1,2.08-7.1l1.57-1a41.92,41.92,0,0,1-.13,4.9A20.58,20.58,0,0,1,75.78,19.19Z"/><path class="cls-10" d="M79.23,9a9.78,9.78,0,0,0,3.63-3.47c1.54-2.47,4-.38,4-.38a22,22,0,0,1-1,4.17,3.4,3.4,0,0,0,.59,3.35c1.07.91,3.2,2.39,3.2,2.39s-4.13-1.58-6.3-.44C80.55,12.9,79.23,9,79.23,9Z"/><path class="cls-4" d="M89.42,15c-1-.69-2.61-1.83-3.42-2.54A2.07,2.07,0,0,1,85.48,10l.75-2.58a3.21,3.21,0,0,1-.37-1.29A1.24,1.24,0,0,1,87.4,5c1.79.43,2.9-3.69,2.9-3.69l2.33.81,1.11,2.11-.24,6.89s-.16.27-.56.09-.93-.39-.93-.39-1.91,3.77-2,4S89.79,15.2,89.42,15Z"/><path class="cls-7" d="M92.66,7.86c-.17.28-.26.26-.54.08a5.6,5.6,0,0,1-1-.8,12.57,12.57,0,0,1,1.63.2C93.1,7.38,92.85,7.57,92.66,7.86Z"/><path class="cls-11" d="M86.78,0c6.71.49,8.32,1.54,7.93,3.2a1.54,1.54,0,0,1-1,1c-1.5-1.24-3-2.27-3.29-.92-.15.39-1,5.11-2.43,4.35.06-.66.12-2.52-1.2-2.65-.78-.07-1.26,2.11-4.2.86C83.91,3.59,85.86.54,86.78,0Z"/><path class="cls-7" d="M59.1,17.09s4.15.21-.14,2.44c-2.82,1.47-6.24,3-6.24,3l.84-2.35Z"/><path class="cls-5" d="M25,30.34l1,2L62,17.86,60.77,8.05Z"/></svg>