<svg id="Layer_1" data-name="Layer 1" xmlns="http://www.w3.org/2000/svg" viewBox="0 0 135 124.04"><defs><style>.cls-1{fill:#f3f3f3;}.cls-2,.cls-5{fill:#d8d8d8;}.cls-2,.cls-6,.cls-9{fill-rule:evenodd;}.cls-3{fill:#2b2a29;}.cls-4{fill:#444;}.cls-6{fill:#fefefe;}.cls-7,.cls-9{fill:#bcbcbc;}.cls-8{fill:#7f7f7f;}.cls-10{fill:#3c3c3c;}.cls-11{fill:#3384fe;}</style></defs><path class="cls-1" d="M22.61,121.79A22.61,22.61,0,1,0,0,99.18,22.61,22.61,0,0,0,22.61,121.79Z"/><path class="cls-2" d="M22.61,121.79a22.63,22.63,0,0,0,22.25-18.54A25.45,25.45,0,0,1,.74,105,22.62,22.62,0,0,0,22.61,121.79Z"/><path class="cls-3" d="M64.88,120l.11,3.46,2.41.07,0-1,3.36,1.1,3.12,0s.37-.6-.18-.72L70.6,122,67.77,120Z"/><path class="cls-4" d="M67.46,71.86l-39.52-2s.49,12,5.71,13.78c6.53.18,19,0,28.33-.77-3.46,2.51-15.06,31.43-15.06,31.43l2.47,3L71,87.74Z"/><path class="cls-3" d="M47.51,114.48l-2.28.82.53,2.35,1-.2L46.5,121l.75,3s.68.21.66-.36c0-.16.1-3.26.1-3.26l1.78-3.59Z"/><path class="cls-5" d="M66.59,63a6.35,6.35,0,0,0,.84,1c.71.6,3.48,3,3.48,3a.82.82,0,0,0-.09-1.19,3.24,3.24,0,0,1-.76-1.16l3.55.11a6.61,6.61,0,0,0,.63,1.78c.25.17.6.21.59.11-.15-.81-.52-2.94-.52-2.94a.77.77,0,0,0-.56-.4.84.84,0,0,0-.61-.67c-.4,0-4.67-.8-4.67-.8l-1.89-.27Z"/><path class="cls-4" d="M46.54,29.78s8.89-.11,6.86,10.65a110,110,0,0,1-5.27,19.21L67,61.56l-.29,2.83s-15,1.32-21.91,1.79-6.5-4.78-6.5-4.78L38.14,41Z"/><path class="cls-6" d="M30.59,70.46c1.11-4.2,2.91-8.69,5.74-10.95C58.23,42,54.84,28.24,54.68,27.63l1.3-.38S57.48,31,58.56,34c.77,2.09-.46,15.67-5.59,20.75a34.52,34.52,0,0,0-4.2,5,28.43,28.43,0,0,0-3.34,6.42,16.81,16.81,0,0,0-1,4.3Z"/><path class="cls-7" d="M40,69.82s1.74-6.92,6.46-9.57c5.14-2.89,8.36-10.16,8.36-10.16a46,46,0,0,1-8.37,9.45c-5,4.16-8.53,10.9-8.53,10.9Z"/><path class="cls-7" d="M56,27.25l-1.31.36.23,7.92s2.7.23,3.63-.66A42,42,0,0,1,56,27.25Z"/><path class="cls-4" d="M54.67,27.61S43.44,28.48,37.05,34C21,47.81,17.3,77.57,17.3,77.65c0,2,11.62,2.27,11.62,2.27s1.25-15.5,7.41-20.41C58.73,41.64,54.67,27.61,54.67,27.61Z"/><path class="cls-8" d="M33.15,79s-3.25,1.89,3,3.28c5.08,1.12,17.77-.8,27.29-1.69-1.43,8.16.87,12.58.87,12.58L66.22,77.5Z"/><path class="cls-8" d="M58.57,35.14a6.65,6.65,0,0,1,0,1.32,4.46,4.46,0,0,1-.59,1.4s.86,5.32-3.34,11.93c-5,7.91-4.19,17.39-4.19,17.39L47.33,71,44,67.56s.63-11.62,8.33-20.51c5.33-6.15,4.62-9.2,4.62-9.2a6.9,6.9,0,0,1-1.23-2A4.61,4.61,0,0,0,58.57,35.14Z"/><path class="cls-8" d="M43.91,51.41a27.64,27.64,0,0,0,3.89-10,16.49,16.49,0,0,0,2.91-1.21,11.82,11.82,0,0,1-1.51-2.6c2.92-1.07,4.92-5.38,4.92-5.38a31.43,31.43,0,0,1-1.27,5.05A35.78,35.78,0,0,1,43.91,51.41Z"/><path class="cls-9" d="M56.17,27.25A6.86,6.86,0,0,0,58.6,25.7c.93-1,4.38.07,4.38.07a23.86,23.86,0,0,1-1.58,4.45A3.73,3.73,0,0,0,61.62,34c1.06,1.14,3,2.87,3,2.87s-3.77-2.59-6-2.31C57.56,32.67,56.17,27.25,56.17,27.25Z"/><path class="cls-5" d="M64.46,36.72a45,45,0,0,1-3.29-3.07A2.29,2.29,0,0,1,60.9,31L62,28.24a3.75,3.75,0,0,1-.23-1.45,1.14,1.14,0,0,1,1.7-.89c1.91.69,3.77-3.92,3.77-3.92l2.45,1.17.69,2.31L69.29,33a.41.41,0,0,1-.61,0,9.88,9.88,0,0,0-1-.55s-2.53,3.95-2.66,4.14S64.83,37,64.46,36.72Z"/><path class="cls-8" d="M69.05,29.5c-.23.29-.33.25-.61,0a8.25,8.25,0,0,1-1-1,8.82,8.82,0,0,1,1.76.42C69.59,29,69.29,29.2,69.05,29.5Z"/><path class="cls-10" d="M63.09,20c7.3,1.38,9.16,2.76,8.53,4.53a1.68,1.68,0,0,1-1.2,1c-1.48-1.55-2.76-2.73-3.22-1.28-.22.41-1.79,5.47-3.21,4.47.15-.72.42-2.57-1-2.88-.83-.17-1.33,1.68-4.4-.06C60.27,23.44,62,20.45,63.09,20Z"/><path class="cls-4" d="M73.22,78.06c.76-7.1-5.09-8.38-7.79-8.38L23,69.74s10.76,11.65,1.54,10.51c2.53,2.48,8.1,4.14,16.68,3.24,7.27-.76,6.37-2.21,23.53-4C61.07,89,64.41,100.67,63.63,120c1.85.07,5,.25,5,.25S72.46,85.15,73.22,78.06Z"/><path class="cls-5" d="M59,66.22s.67.77,1.11.82a5.64,5.64,0,0,0,2.52-.3c1.11-.41,3.94-1.35,3.94-1.35a14.45,14.45,0,0,0,1.82,1.44c.29.07.73-.21.67-.28A37,37,0,0,0,66,63.76a1.88,1.88,0,0,0-2-.21l-2.89.81a6.66,6.66,0,0,1-1.77.25Z"/><path class="cls-8" d="M59.39,64.49S57.32,63,52,61.55s-7.67-1.84-7.67-1.84Z"/><path class="cls-5" d="M62.76,67l2.43-.9s1.45.22,1.85.3.28.51,0,.59Z"/><path class="cls-11" d="M53.17,67.16v.33a1.59,1.59,0,0,0,1.49,1.67H76.15a1.59,1.59,0,0,0,1.49-1.67v-.33Z"/><path class="cls-11" d="M77.63,67.06l.16.11A1.59,1.59,0,0,0,80,66.88L91.8,49.48a1.6,1.6,0,0,0-.54-2.18l-.16-.1Z"/><path class="cls-8" d="M34,62l-1.08,2S25.68,62,28.65,56.6s7.52-3.13,7.52-3.13Z"/><path class="cls-4" d="M37.27,36C34.41,41.23,27.94,55.23,28,57.53s1.64,5.21,7.24,5.93c6.59,1,23.54,3.35,23.54,3.35l.71-2.37-22.08-7s6.84-10.82,9.39-19.63C49.24,29.48,41,29.17,37.27,36Z"/><path class="cls-1" d="M91.6,0l36.26.12A7.17,7.17,0,0,1,135,7.3L135,24.67a7.17,7.17,0,0,1-7.19,7.14l-24.35-.08-11,11.2L94.68,31.7H91.5a7.16,7.16,0,0,1-7.14-7.19l0-17.36A7.17,7.17,0,0,1,91.6,0Z"/><path class="cls-11" d="M114.56,16.2c1.94-1.4,6.74-4.82,9.38-6.7V22.88C121.65,21.26,117.05,18,114.56,16.2Z"/><path class="cls-11" d="M107.14,15.74c-1.79-1.33-6.91-5-9.81-7l25.38,0-9.72,7A4.49,4.49,0,0,1,107.14,15.74Z"/><path class="cls-11" d="M105.26,16l-9.2,6.58V9.47C98.4,11.13,102.83,14.27,105.26,16Z"/><path class="cls-11" d="M106.41,16.87A6.06,6.06,0,0,0,110,18.14,6.22,6.22,0,0,0,113.39,17c2.27,1.65,6.86,4.9,9.39,6.69H96.83Z"/></svg>