<svg id="Layer_1" data-name="Layer 1" xmlns="http://www.w3.org/2000/svg" viewBox="0 0 74.9 131.4"><defs><style>.cls-1{fill:#d8d8d8;}.cls-2{fill:#444;}.cls-3{fill:#3384fe;}.cls-4{fill:#f3f3f3;}.cls-4,.cls-9{fill-rule:evenodd;}.cls-5{fill:#7f7f7f;}.cls-6{fill:#2b2a29;}.cls-7{fill:#fff;}.cls-8,.cls-9{fill:#bcbcbc;}.cls-10{fill:#3c3c3c;}</style></defs><path class="cls-1" d="M59.33,13.31a2.27,2.27,0,0,0,.16-1C59.44,12,57.9,8.18,57.9,8.18a1,1,0,0,1,1.2.8,1.77,1.77,0,0,0,.66.81l.76-2a15.41,15.41,0,0,1,2.21.52,2.53,2.53,0,0,0,0,.46,8.48,8.48,0,0,1-.24,1.66,6.63,6.63,0,0,1-1.11,2v1.19Z"/><path class="cls-2" d="M31.42,14.72s6.87-1.12,12.22,5.88c3.3,4.31,12.26,8.32,12.26,8.32l3.15-16.38,2.5.4s.19,11,.09,18.07c-.07,5.35-6.32,4.18-6.32,4.18l-18.53-6Z"/><path class="cls-3" d="M54.37,7.22,71,9.77V2.3L54.37,4.85Z"/><path class="cls-3" d="M43.56,4.85h-.44c-.29,0-.52.54-.52,1.22s.23,1.21.52,1.21h.44c.28,0,.51-.54.51-1.21S43.84,4.85,43.56,4.85Z"/><path class="cls-3" d="M43.41,6.87l22.65,3.75V1.55L43.41,5.24Z"/><path class="cls-3" d="M67.39.59H65.57C64.39.59,63.45,3,63.45,6s.94,5.41,2.12,5.41h1.82C68.57,11.4,69.52,9,69.52,6S68.57.59,67.39.59Z"/><path class="cls-3" d="M73.16,1.47H71.67c-1,0-1.74,2-1.74,4.43s.78,4.42,1.74,4.42h1.49c1,0,1.74-2,1.74-4.42S74.12,1.47,73.16,1.47Z"/><path class="cls-4" d="M72.58,2.21a5.73,5.73,0,0,0-1,3.64,5.43,5.43,0,0,0,1,3.71,5.74,5.74,0,0,0,1-3.64C73.62,4.2,73.19,2.74,72.58,2.21Z"/><path class="cls-4" d="M66.8,1.59A6.81,6.81,0,0,0,65.63,6c0,2.06.53,3.81,1.27,4.44C67.59,9.7,68.08,8,68.08,6S67.55,2.22,66.8,1.59Z"/><path class="cls-5" d="M7.38,69.1S10.73,65.59,23.11,65c11.7-.55,15.62-26,15.62-26S16.66,54.93,9.89,63.11A15.47,15.47,0,0,0,7.38,69.1Z"/><path class="cls-6" d="M6.32,129.1l-.12,2.17,1.84,0,0-.77,2.58.84H13s.29-.46-.13-.56c-.13,0-2.41-.68-2.41-.68l-2.06-1.35Z"/><path class="cls-6" d="M26.82,129.1l-.13,2.17,1.85,0,0-.77,2.57.84h2.39s.29-.46-.14-.56c-.12,0-2.4-.68-2.4-.68l-2.17-1.35Z"/><path class="cls-2" d="M33.3,54.64A29.44,29.44,0,0,0,44.82,33c.51-10.88-8.5-17.9-8.5-17.9Z"/><path class="cls-7" d="M37.23,62.67s1.55-11.32,4.09-25c2.08-11.22-4.84-24-4.84-24l-5.86.82S19.71,23.15,17,33.87a101.34,101.34,0,0,0-2.34,14.29l-.19,14.1Z"/><path class="cls-8" d="M32,64.52s-.75-7,2-11c3-4.39,3.22-13.36,3.22-13.36A62.28,62.28,0,0,1,33.67,52.9a35.69,35.69,0,0,0-2.55,11.52Z"/><path class="cls-8" d="M30.59,14.49l-.59.4,4,5.24a6.28,6.28,0,0,0,3.21-2.82A10.49,10.49,0,0,1,30.59,14.49Z"/><path class="cls-2" d="M30,14.89s11.5,17.8-2.53,31.89C10.83,63.48,7.06,71.7,7.06,71.7a18.94,18.94,0,0,1,4-19C28.79,33.38,30,14.89,30,14.89Z"/><path class="cls-2" d="M14,49.9a46,46,0,0,0,0-7.14C18.24,36,12.33,28.64,13.61,22a5.29,5.29,0,0,1,2.46-2C24.61,16.8,30,14.89,30,14.89s6.11,10.24-2,22.32S16.15,49,14,49.9Z"/><path class="cls-8" d="M35.52,45.53S33.14,51,31.14,54.64a29.42,29.42,0,0,1-3.51,5.28,23.89,23.89,0,0,0-4.45.09,18.7,18.7,0,0,0-2.7.87,40.31,40.31,0,0,1,1.74-6,8.15,8.15,0,0,1,2.07-2.36l3.64-3.18Z"/><path class="cls-5" d="M37.57,17.39a3.31,3.31,0,0,1,1,1.89,2.44,2.44,0,0,1-.49,1.51,27.11,27.11,0,0,1,2.07,12.42c-.7,11-12.4,23.73-12.4,23.73l-5.68.8.88-6S35.2,43.06,37.14,32.46C38.49,25.13,37,21,37,21a8.62,8.62,0,0,1-1.43-1.27A5.62,5.62,0,0,0,37.57,17.39Z"/><path class="cls-5" d="M30.14,41.79a23.45,23.45,0,0,0,.8-10.43,22.23,22.23,0,0,0,1-4.07,7.79,7.79,0,0,0,.63-.81l-.49-.3a21,21,0,0,0-.25-5.84c.3.75.59,1.55.83,2.36C33.74,26.2,35.64,34.32,30.14,41.79Z"/><path class="cls-5" d="M30.94,31.36A8.79,8.79,0,0,0,30.29,29,20.71,20.71,0,0,0,32,27.3,22.34,22.34,0,0,1,30.94,31.36Zm1.16-5.18c-.47-.3-1.23-.79-2-1.36,1.92-2.64-1.32-7.41-1.32-7.41l1-1.6a41.79,41.79,0,0,1,2.11,4.53A21,21,0,0,1,32.1,26.18Z"/><path class="cls-9" d="M30.61,14.46a8.61,8.61,0,0,0,.68-4.5c-.2-3,3-2.66,3-2.66a22.15,22.15,0,0,1,1.68,4,3.45,3.45,0,0,0,2.48,2.42c1.42.12,4.07.08,4.07.08s-4.17,1-5.29,3.21C34,17.28,30.61,14.46,30.61,14.46Z"/><path class="cls-1" d="M42.33,13.87c-1.25,0-3.25,0-4.34-.06a2.13,2.13,0,0,1-1.85-1.66l-.92-2.58a3.35,3.35,0,0,1-1.06-.85,1.26,1.26,0,0,1,.55-1.92c1.74-.71.2-4.78.2-4.78l2.41-.71L39.5,2.39l3.89,5.84s0,.32-.4.41l-1,.23s.66,4.26.68,4.51S42.78,13.85,42.33,13.87Z"/><path class="cls-5" d="M40.8,6.08c0,.34-.07.37-.41.39a5.49,5.49,0,0,1-1.28-.09,15.39,15.39,0,0,1,1.47-.8C40.87,5.42,40.78,5.72,40.8,6.08Z"/><path class="cls-10" d="M31.25,3.07C37.1-.52,39.05-.61,39.72,1a1.55,1.55,0,0,1-.23,1.39c-2-.14-3.85-.08-3.27,1.19.11.42,2.18,4.86.59,5.05-.35-.58-1.41-2.16-2.58-1.48-.68.41.22,2.5-3,3.21C31,7.76,30.81,4.06,31.25,3.07Z"/><path class="cls-2" d="M30.06,129.09a14.45,14.45,0,0,1-4.54.69c-.35-13.1-4.31-23.12-.78-33.48-.52-16.6-5.09-33.87-5.09-33.87l17.58.24Z"/><path class="cls-5" d="M23.59,82.57,24,86.42S26.54,79.26,26.58,75C26.62,69.08,23.59,82.57,23.59,82.57Z"/><path class="cls-1" d="M3.22,63s.61,1,.77,1.37c.28.64-.33,3,0,4.75,0,.15-.64,0-.68-.57A5.07,5.07,0,0,0,3,67.12L2.33,68s.83-.32.84.26l-1.38.68a.44.44,0,0,1-.62-.19.42.42,0,0,0-.26-.28.74.74,0,0,1-.43-.53,1.06,1.06,0,0,0-.29-.39C0,67.27,0,67.09,0,67.09a9.43,9.43,0,0,1,.77-1.45c.52-.74,1.46-1.81,1.46-1.81l.29-.92Z"/><path class="cls-2" d="M2.19,63.49l2.12.83s5.1-15.63,16.82-35.84c-1.57-3.54-2.29-6.25-7.52-6.46C5.79,39.53,2.19,63.49,2.19,63.49Z"/><path class="cls-2" d="M30.59,62.51,10,129.51s-3-.14-4.1-.21C6.63,117,7.38,101.85,11.29,96c3.13-25.29.19-24.91,3.13-33.69C22.71,62.6,30.59,62.51,30.59,62.51Z"/></svg>