<svg width="146" height="146" viewBox="0 0 146 146" fill="none" xmlns="http://www.w3.org/2000/svg">
<path d="M94.8802 20.6054C94.8802 20.6054 95.1006 20.0584 95.0431 19.6642C94.9912 19.272 93.4551 15.481 93.4551 15.481C93.4551 15.481 94.3147 15.279 94.6511 16.2813C94.821 16.7838 95.3105 17.0864 95.3105 17.0864L96.0732 15.0967C96.0732 15.0967 98.2974 15.5072 98.2787 15.6205C98.2404 15.8821 98.2513 16.0764 98.2513 16.0764C98.2513 16.0764 98.2315 16.8735 98.0092 17.7388C97.786 18.6028 96.9018 19.6928 96.9018 19.6928L96.9054 20.8785L94.8802 20.6054Z" fill="#D8D8D8"/>
<path d="M66.9746 22.0234C66.9746 22.0234 73.8402 20.8966 79.1929 27.8968C82.4934 32.2139 91.4534 36.2166 91.4534 36.2166L94.5999 19.8369L97.0974 20.2434C97.0974 20.2434 97.2918 31.2057 97.1944 38.3095C97.1212 43.6557 90.8695 42.4932 90.8695 42.4932L72.3406 36.4436L66.9746 22.0234Z" fill="#444444"/>
<path d="M89.916 14.5169L106.535 17.0702V9.60156L89.916 12.1534V14.5169Z" fill="#3384FE"/>
<path d="M79.1102 12.1475C79.0315 12.1475 78.7474 12.1475 78.6684 12.1475C78.3836 12.1475 78.1523 12.6927 78.1523 13.3659C78.1523 14.0403 78.3836 14.5848 78.6684 14.5848C78.7474 14.5848 79.0315 14.5848 79.1102 14.5848C79.3945 14.5848 79.6247 14.0403 79.6247 13.3659C79.6247 12.6927 79.3945 12.1475 79.1102 12.1475Z" fill="#3384FE"/>
<path d="M78.9609 14.1652L101.614 17.9171V8.84961L78.9609 12.5403V14.1652Z" fill="#3384FE"/>
<path d="M102.944 7.88672C102.617 7.88672 101.449 7.88672 101.122 7.88672C99.9457 7.88672 98.9961 10.3064 98.9961 13.2941C98.9961 16.2787 99.9457 18.7004 101.122 18.7004C101.449 18.7004 102.617 18.7004 102.944 18.7004C104.119 18.7004 105.07 16.2787 105.07 13.2941C105.07 10.3064 104.119 7.88672 102.944 7.88672Z" fill="#3384FE"/>
<path d="M108.713 8.77441C108.443 8.77441 107.486 8.77441 107.221 8.77441C106.259 8.77441 105.48 10.7559 105.48 13.198C105.48 15.6394 106.259 17.6211 107.221 17.6211C107.486 17.6211 108.443 17.6211 108.713 17.6211C109.671 17.6211 110.451 15.6394 110.451 13.198C110.451 10.7559 109.671 8.77441 108.713 8.77441Z" fill="#3384FE"/>
<path fill-rule="evenodd" clip-rule="evenodd" d="M108.127 9.51465C107.561 10.0953 107.16 11.5017 107.16 13.1469C107.16 14.8712 107.599 16.3319 108.211 16.8568C108.777 16.2746 109.174 14.8692 109.174 13.2237C109.174 11.5 108.737 10.039 108.127 9.51465Z" fill="#F3F3F3"/>
<path fill-rule="evenodd" clip-rule="evenodd" d="M102.354 8.89258C101.664 9.5888 101.176 11.2753 101.176 13.2474C101.176 15.3131 101.712 17.0633 102.454 17.6926C103.14 16.9961 103.628 15.3108 103.628 13.3387C103.628 11.2718 103.096 9.52242 102.354 8.89258Z" fill="#F3F3F3"/>
<path d="M42.9355 76.3961C42.9355 76.3961 46.2815 72.8863 58.6601 72.3051C70.36 71.7571 74.2784 46.3486 74.2784 46.3486C74.2784 46.3486 52.2063 62.2339 45.4395 70.4085C43.6194 72.6065 42.9355 76.3961 42.9355 76.3961Z" fill="#7F7F7F"/>
<path d="M41.8749 136.399L41.748 138.568L43.5935 138.616L43.6235 137.852L46.1981 138.689L48.5841 138.7C48.5841 138.7 48.8711 138.236 48.4461 138.144C48.3252 138.116 46.0435 137.462 46.0435 137.462L43.9831 136.105L41.8749 136.399Z" fill="#2B2A29"/>
<path d="M62.3685 136.399L62.2402 138.568L64.0869 138.616L64.1182 137.852L66.6906 138.689L69.0769 138.7C69.0769 138.7 69.3659 138.236 68.9413 138.144C68.8189 138.116 66.5384 137.462 66.5384 137.462L64.3712 136.105L62.3685 136.399Z" fill="#2B2A29"/>
<path d="M68.8477 61.9411C68.8477 61.9411 79.7094 54.4665 80.3711 40.2881C80.8816 29.4065 71.8698 22.3877 71.8698 22.3877L68.8477 61.9411Z" fill="#444444"/>
<path d="M72.7787 69.9665C72.7787 69.9665 74.3352 58.653 76.8704 44.97C78.95 33.7529 72.035 20.9619 72.035 20.9619L66.1682 21.7841C66.1682 21.7841 55.2581 30.4535 52.497 41.1737C50.8066 47.7405 50.1587 55.4648 50.1587 55.4648L49.9688 69.5564L72.7787 69.9665Z" fill="white"/>
<path d="M67.5438 71.8214C67.5438 71.8214 66.7917 64.801 69.5196 60.7654C72.4825 56.3802 72.7387 47.4111 72.7387 47.4111C72.7387 47.4111 71.5724 54.8444 69.22 60.2033C66.8678 65.5616 66.6738 71.722 66.6738 71.722L67.5438 71.8214Z" fill="#BCBCBC"/>
<path d="M66.1443 21.7852L65.5527 22.1904L69.6003 27.4275C69.6003 27.4275 71.8318 26.6345 72.8147 24.6068C68.6546 24.4221 66.1443 21.7852 66.1443 21.7852Z" fill="#BCBCBC"/>
<path d="M65.5522 22.1904C65.5522 22.1904 77.05 39.992 63.0179 54.0774C46.3809 70.7769 42.609 79.0041 42.609 79.0041C42.609 79.0041 38.5309 68.7542 46.5817 59.9971C64.3419 40.6791 65.5522 22.1904 65.5522 22.1904Z" fill="#444444"/>
<path d="M49.52 57.1992C49.7338 54.9676 49.6751 52.5618 49.5112 50.0587C53.7863 43.3432 47.8822 35.941 49.1625 29.3175C49.8374 28.3506 50.6486 27.647 51.6192 27.2851C60.16 24.1005 65.5516 22.1904 65.5516 22.1904C65.5516 22.1904 71.6579 32.4325 63.5068 44.5055C55.3534 56.5736 51.7034 56.3244 49.52 57.1992Z" fill="#444444"/>
<path d="M71.075 52.8271C71.075 52.8271 68.6937 58.289 66.6878 61.9416C64.6824 65.5918 63.185 67.2203 63.185 67.2203C63.185 67.2203 60.0398 67.0192 58.7302 67.3102C57.4218 67.6015 56.0312 68.1781 56.0312 68.1781C56.0312 68.1781 57.0584 63.557 57.7674 62.2259C58.471 60.8908 59.8366 59.8746 59.8366 59.8746L63.4849 56.6865L71.075 52.8271Z" fill="#BCBCBC"/>
<path d="M73.1164 24.6943C73.1164 24.6943 73.7412 25.1031 74.1373 26.5784C74.1804 27.441 73.6475 28.0907 73.6475 28.0907C73.6475 28.0907 76.1869 33.3561 75.7251 40.511C75.02 51.4907 63.316 64.2398 63.316 64.2398L57.6387 65.039L58.518 59.0422C58.518 59.0422 70.746 50.3583 72.6939 39.7576C74.0412 32.4343 72.5449 28.3072 72.5449 28.3072C72.5449 28.3072 72.153 28.0925 71.1134 27.0391C72.4974 26.1753 73.1164 24.6943 73.1164 24.6943Z" fill="#7F7F7F"/>
<path d="M65.6914 49.0859C66.8616 45.6973 66.9405 41.4823 66.4885 38.6619C66.9874 37.2494 67.3142 35.888 67.5097 34.5943C67.9483 34.0806 68.14 33.7828 68.14 33.7828C68.14 33.7828 67.9539 33.6698 67.6486 33.4764C67.8633 31.2747 67.7086 29.2983 67.4047 27.6377C67.7032 28.3928 67.9908 29.1939 68.2349 30.0007C69.2918 33.4997 71.1863 41.623 65.6914 49.0859Z" fill="#7F7F7F"/>
<path d="M66.4888 38.6627C66.3304 37.6736 66.1066 36.8561 65.8417 36.3061C66.5953 35.6149 67.1402 35.0283 67.51 34.5951C67.3145 35.8888 66.9877 37.2501 66.4888 38.6627ZM67.6489 33.4771C67.1771 33.1776 66.42 32.6853 65.6238 32.1189C67.5371 29.4848 64.3027 24.7051 64.3027 24.7051L65.2957 23.1064C65.2957 23.1064 66.4092 25.1174 67.405 27.6385C67.7089 29.299 67.8636 31.2755 67.6489 33.4771Z" fill="#7F7F7F"/>
<path fill-rule="evenodd" clip-rule="evenodd" d="M66.1562 21.7634C66.1562 21.7634 67.0318 20.2252 66.8377 17.2629C66.6437 14.3036 69.8843 14.5958 69.8843 14.5958C69.8843 14.5958 71.2047 17.0736 71.56 18.6198C71.8897 20.0414 73.3662 20.9855 74.041 21.0427C75.4657 21.1647 78.1139 21.1226 78.1139 21.1226C78.1139 21.1226 73.9381 22.0922 72.8207 24.3278C69.5119 24.5756 66.1562 21.7634 66.1562 21.7634Z" fill="#BCBCBC"/>
<path d="M77.882 21.1651C76.6323 21.2029 74.6349 21.2076 73.5423 21.1106C71.9885 20.9747 71.6957 19.448 71.6957 19.448L70.7729 16.8659C70.7729 16.8659 70.1707 16.5854 69.7066 16.018C69.5194 15.7892 69.0785 14.5756 70.2565 14.0991C71.9961 13.389 70.4645 9.32437 70.4645 9.32437L72.8705 8.6084L75.0463 9.69011L78.9423 15.5311C78.9423 15.5311 78.9759 15.8538 78.5439 15.9437C78.0256 16.0511 77.5417 16.1681 77.5417 16.1681C77.5417 16.1681 78.2023 20.4285 78.2221 20.6824C78.2412 20.8924 78.3356 21.1545 77.882 21.1651Z" fill="#D8D8D8"/>
<path d="M76.3478 13.3782C76.3711 13.715 76.2847 13.7515 75.9438 13.7651C75.6076 13.779 74.6227 13.7401 74.6592 13.6846C74.7058 13.6116 75.2373 13.3497 76.1278 12.8769C76.4236 12.7185 76.328 13.0238 76.3478 13.3782Z" fill="#7F7F7F"/>
<path d="M66.7974 10.3743C72.647 6.78364 74.6016 6.69193 75.2701 8.29527C75.3843 8.59672 75.4052 9.30001 75.0454 9.68964C73.069 9.55334 71.1925 9.60935 71.7723 10.8848C71.882 11.2959 73.9469 15.74 72.358 15.934C72.0135 15.3481 70.9504 13.7748 69.785 14.4543C69.1037 14.8568 70.0053 16.9479 66.8194 17.6634C66.5656 15.0559 66.3612 11.3634 66.7974 10.3743Z" fill="#3C3C3C"/>
<path d="M65.6104 136.392C65.6104 136.392 63.7352 137.079 61.0749 137.077C60.7219 123.975 56.7641 113.961 60.291 103.598C59.767 86.9993 55.2031 69.7256 55.2031 69.7256L72.7829 69.9656L65.6104 136.392Z" fill="#444444"/>
<path d="M59.1445 89.8722L59.5499 93.7151C59.5499 93.7151 62.0929 86.5626 62.126 82.3379C62.1719 76.3755 59.1445 89.8722 59.1445 89.8722Z" fill="#7F7F7F"/>
<path d="M38.7718 70.255C38.7718 70.255 39.3794 71.2687 39.5379 71.6297C39.8158 72.2655 39.2092 74.5994 39.5855 76.3806C39.6185 76.5319 38.9411 76.3431 38.8966 75.8126C38.8426 75.1234 38.532 74.4177 38.532 74.4177L37.8833 75.2461C37.8833 75.2461 38.709 74.9252 38.7231 75.5056C38.5911 75.5811 37.7636 75.9889 37.336 76.188C37.0083 76.3434 36.7792 76.1467 36.717 75.996C36.6657 75.8689 36.6297 75.7863 36.4655 75.7173C36.1794 75.6 36.087 75.3927 36.0343 75.1904C36.0009 75.0692 35.8727 74.93 35.7453 74.8044C35.4985 74.5654 35.5568 74.387 35.5568 74.387C35.5568 74.387 35.9349 73.5103 36.3298 72.9424C36.8494 72.2027 37.7933 71.1343 37.7933 71.1343L38.0829 70.2148L38.7718 70.255Z" fill="#D8D8D8"/>
<path d="M37.7422 70.7906L39.8604 71.6219C39.8604 71.6219 44.9657 55.9911 56.6794 35.7839C55.1088 32.2434 54.3919 29.525 49.1639 29.3174C41.3414 46.8294 37.7422 70.7906 37.7422 70.7906Z" fill="#444444"/>
<path d="M66.1427 69.8146L45.572 136.813C45.572 136.813 42.5502 136.672 41.4727 136.597C42.1798 124.318 42.9271 109.151 46.8386 103.248C49.974 77.9636 47.0295 78.341 49.9683 69.5557C58.2657 69.9013 66.1427 69.8146 66.1427 69.8146Z" fill="#444444"/>
</svg>
