<svg id="Layer_1" data-name="Layer 1" xmlns="http://www.w3.org/2000/svg" xmlns:xlink="http://www.w3.org/1999/xlink" viewBox="0 0 50 50.19"><defs><style>.cls-1{fill:none;}.cls-2{clip-path:url(#clip-path);}</style><clipPath id="clip-path"><rect class="cls-1" width="50" height="50"/></clipPath></defs><g class="cls-2"><path d="M25,0A25,25,0,0,0,9.59,44.66c.29.22.58.44.88.65l.25.19.37.25c.27.18.54.36.82.53l.18.13.35.22c.21.12.44.22.65.34s.7.39,1.07.56.74.34,1.12.5a26.05,26.05,0,0,0,10.28,2.16,19.25,19.25,0,0,0,5.69-1,25,25,0,0,0,10-5.25l.31-.25.19-.16.06-.06.35-.34A25,25,0,0,0,25,0Zm0,2A23,23,0,0,1,41.38,41.19a25.78,25.78,0,0,0-6.25-3.06c-2.17-.88-3.72-1.73-4.19-2.88-.11-1.3-.1-2.33-.1-3.56a4.2,4.2,0,0,0,.44-.41,9.29,9.29,0,0,0,.78-1.34A10.94,10.94,0,0,0,33,27c.31-.17.65-.2.91-.53a5.32,5.32,0,0,0,1-2.72,3,3,0,0,0-.68-2.38,18.88,18.88,0,0,0,.9-6.78,7.89,7.89,0,0,0-1.34-4.06A5.91,5.91,0,0,0,30,8.28C29,6.92,27.09,6.41,24.91,6.41h0c-4.68.08-7.66,2-8.94,4.9s-.95,6.32-.06,10a3,3,0,0,0-.72,2.44,5.23,5.23,0,0,0,1,2.72c.26.33.61.36.93.53a10.83,10.83,0,0,0,.91,3,8.79,8.79,0,0,0,.81,1.34,5.49,5.49,0,0,0,.44.41c0,1.23,0,2.26-.09,3.56-.48,1.14-2,2-4.19,2.84a26,26,0,0,0-6.31,3.1A23,23,0,0,1,25,2Zm-.09,6.41h0c2,0,3.31.59,3.69,1.25l.25.4.46.07a3.73,3.73,0,0,1,2.75,1.53,5.94,5.94,0,0,1,1,3.06,18.62,18.62,0,0,1-.93,6.5l-.25.78.68.41a1.15,1.15,0,0,1,.28,1.09,3.5,3.5,0,0,1-.53,1.72c-.18.23-.27.22-.28.22l-.84.06-.1.81a9,9,0,0,1-.84,2.75,6.94,6.94,0,0,1-.59,1c-.19.26-.38.4-.28.35l-.54.28v.59a43,43,0,0,0,.1,4.32v.12l.06.13c.82,2.21,3.1,3.17,5.38,4.09a29.73,29.73,0,0,1,5.31,2.59,10.59,10.59,0,0,1-.94.75A35,35,0,0,1,35,45.5a28.42,28.42,0,0,1-4.53,1.84s-.09,0-.12,0A23.3,23.3,0,0,1,25,48a23.06,23.06,0,0,1-6.31-.87,23.39,23.39,0,0,1-8.35-4.57A29.8,29.8,0,0,1,15.69,40c2.27-.91,4.55-1.88,5.37-4.09l.07-.25a42.83,42.83,0,0,0,.09-4.32v-.59l-.53-.28c.09,0-.13-.09-.31-.35a6.73,6.73,0,0,1-.63-1,8.81,8.81,0,0,1-.84-2.75l-.1-.81L18,25.44s-.1,0-.28-.22a3.5,3.5,0,0,1-.53-1.72,1.18,1.18,0,0,1,.28-1.09l.65-.41-.18-.72c-.95-3.62-1.11-6.92-.13-9.15S20.75,8.49,24.91,8.41Z"/></g></svg>