<svg id="Layer_1" data-name="Layer 1" xmlns="http://www.w3.org/2000/svg" viewBox="0 0 12 17"><path d="M6,17l-.38-.44-.56-.67c-.51-.63-1.28-1.61-2.06-2.75A24.64,24.64,0,0,1,.94,9.56,9.11,9.11,0,0,1,0,6,6,6,0,0,1,12,6a9.11,9.11,0,0,1-.94,3.61A24.24,24.24,0,0,1,9,13.15c-.78,1.14-1.55,2.13-2.06,2.75l-.56.67ZM6,1A5,5,0,0,0,1,6a8.21,8.21,0,0,0,.85,3.2,23.19,23.19,0,0,0,2,3.44c.75,1.11,1.51,2.07,2,2.68l.16.2.16-.2c.5-.61,1.26-1.57,2-2.68a23.71,23.71,0,0,0,2-3.44A8.21,8.21,0,0,0,11,6,5,5,0,0,0,6,1ZM6,9.08A3.13,3.13,0,1,1,9.14,6,3.14,3.14,0,0,1,6,9.08ZM6,3.83A2.13,2.13,0,1,0,8.14,6,2.13,2.13,0,0,0,6,3.83Z"/></svg>