<svg id="Layer_1" data-name="Layer 1" xmlns="http://www.w3.org/2000/svg" viewBox="0 0 17.42 14.52"><defs><style>.cls-1{fill:none;}</style></defs><path class="cls-1" d="M6.33,6.94A2.37,2.37,0,0,1,8.71,4.56a2.34,2.34,0,0,1,1.75.79l1.12-1.12A3.95,3.95,0,1,0,6,9.81L7.12,8.69A2.34,2.34,0,0,1,6.33,6.94Z"/><path class="cls-1" d="M11,6.26a2.15,2.15,0,0,1,.11.68A2.37,2.37,0,0,1,8.71,9.31,2.15,2.15,0,0,1,8,9.2l-1.2,1.2a3.85,3.85,0,0,0,1.88.5,4,4,0,0,0,4-4,3.85,3.85,0,0,0-.5-1.88Z"/><path d="M14.34,2.89,16.52.71,15.81,0,13.49,2.32A9.25,9.25,0,0,0,8.71,1,9.36,9.36,0,0,0,0,6.94a9.45,9.45,0,0,0,4.14,4.74L2,13.81l.71.71,2.38-2.38a9.26,9.26,0,0,0,3.62.74,9.37,9.37,0,0,0,8.71-5.94A9.45,9.45,0,0,0,14.34,2.89ZM4.75,6.94a3.95,3.95,0,0,1,6.83-2.71L10.46,5.35a2.34,2.34,0,0,0-1.75-.79A2.37,2.37,0,0,0,6.33,6.94a2.34,2.34,0,0,0,.79,1.75L6,9.81A4,4,0,0,1,4.75,6.94Zm4,4a3.85,3.85,0,0,1-1.88-.5L8,9.2a2.15,2.15,0,0,0,.68.11,2.37,2.37,0,0,0,2.37-2.37A2.15,2.15,0,0,0,11,6.26l1.2-1.2a3.85,3.85,0,0,1,.5,1.88A4,4,0,0,1,8.71,10.9Z"/></svg>