<svg id="Layer_1" data-name="Layer 1" xmlns="http://www.w3.org/2000/svg" viewBox="0 0 22 20"><path d="M16.71,20a2,2,0,0,1-.76-.16l-.12-.06L11,17.17,6.17,19.78,6,19.84a1.9,1.9,0,0,1-1.79-.16A1.65,1.65,0,0,1,3.56,18l1.13-5.18L2.81,11.2.58,9.27l-.1-.09a1.63,1.63,0,0,1-.4-1.66A1.75,1.75,0,0,1,1.45,6.39l.12,0L7.1,5.79,9.39,1,9.46.86a1.81,1.81,0,0,1,3.08,0l.07.12L14.9,5.79l5.53.58.12,0a1.74,1.74,0,0,1,1.36,1.13,1.6,1.6,0,0,1-.4,1.67l-.09.09-4.11,3.55L18.43,18a1.63,1.63,0,0,1-.69,1.7A1.84,1.84,0,0,1,16.71,20ZM7.13,12.68c0,.2-.55,2.5-1,4.55l4.29-2.31a1.2,1.2,0,0,1,1.16,0l4.29,2.31-1-4.58a1.09,1.09,0,0,1,.36-1.05l3.65-3.15L14,7.94A1.18,1.18,0,0,1,13,7.29L11,3,9,7.29A1.19,1.19,0,0,1,8,7.94l-4.91.51L6.77,11.6A1.1,1.1,0,0,1,7.13,12.68Z"/></svg>