<svg xmlns="http://www.w3.org/2000/svg" viewBox="0 0 22 20">
   
    <path fill="currentColor"
        d="M21.91,7.52a1.74,1.74,0,0,0-1.36-1.13l-.12,0L14.9,5.79,12.61,1,12.54.86a1.81,1.81,0,0,0-3.08,0L9.39,1,7.1,5.79l-5.53.58-.12,0A1.75,1.75,0,0,0,.08,7.52a1.63,1.63,0,0,0,.4,1.66l.1.09L2.81,11.2l1.88,1.62L3.56,18a1.65,1.65,0,0,0,.69,1.68A1.9,1.9,0,0,0,6,19.84l.13-.06L11,17.17l4.83,2.61.12.06a2,2,0,0,0,.76.16,1.84,1.84,0,0,0,1-.31,1.63,1.63,0,0,0,.69-1.7l-1.12-5.16,4.11-3.55.09-.09A1.6,1.6,0,0,0,21.91,7.52Z" />
    <path 
        d="M16.71,20a2,2,0,0,1-.76-.16l-.12-.06L11,17.17,6.17,19.78,6,19.84a1.9,1.9,0,0,1-1.79-.16A1.62,1.62,0,0,1,3.57,18l1.12-5.18L2.81,11.2.58,9.27.49,9.18a1.59,1.59,0,0,1-.4-1.66A1.72,1.72,0,0,1,1.45,6.39l.12,0L7.1,5.79,9.39,1,9.46.86a1.81,1.81,0,0,1,3.08,0l.07.12L14.9,5.79l5.53.58.12,0a1.77,1.77,0,0,1,1.37,1.13,1.62,1.62,0,0,1-.4,1.67l-.1.09-4.11,3.55L18.43,18a1.63,1.63,0,0,1-.69,1.7A1.84,1.84,0,0,1,16.71,20ZM7.13,12.68c0,.2-.55,2.5-1,4.55l4.29-2.31a1.2,1.2,0,0,1,1.16,0l4.29,2.31-1-4.58a1.09,1.09,0,0,1,.36-1.05l3.65-3.15L14,7.94a1.18,1.18,0,0,1-1-.65L11,3,9,7.29A1.19,1.19,0,0,1,8,7.94l-4.9.51L6.77,11.6A1.1,1.1,0,0,1,7.13,12.68Z" />
</svg>