<svg id="Layer_1" data-name="Layer 1" xmlns="http://www.w3.org/2000/svg" viewBox="0 0 18 13"><defs><style>.cls-1{fill-rule:evenodd;}</style></defs><path class="cls-1" d="M7.14,8.9V3.7L12,6.31ZM17.82,2.8A4.07,4.07,0,0,0,17.1,1,2.49,2.49,0,0,0,15.3.19C12.78,0,9,0,9,0H9S5.22,0,2.7.19A2.52,2.52,0,0,0,.89,1,4.14,4.14,0,0,0,.18,2.8,28.86,28.86,0,0,0,0,5.8V7.2a28.79,28.79,0,0,0,.18,3A4.14,4.14,0,0,0,.89,12a3,3,0,0,0,2,.79C4.32,13,9,13,9,13s3.78,0,6.3-.19A2.56,2.56,0,0,0,17.1,12a4.07,4.07,0,0,0,.72-1.83,28.79,28.79,0,0,0,.18-3V5.8A28.86,28.86,0,0,0,17.82,2.8Z"/></svg>