<svg id="Layer_1" data-name="Layer 1" xmlns="http://www.w3.org/2000/svg" viewBox="0 0 13.4 14"><path d="M11.44,12A6.51,6.51,0,0,1,2,12a7.24,7.24,0,0,1,0-9.9,6.51,6.51,0,0,1,9.48,0A7.24,7.24,0,0,1,11.44,12Zm-4-9a.24.24,0,0,0-.07-.18.24.24,0,0,0-.16-.07H6.24a.26.26,0,0,0-.17.07A.29.29,0,0,0,6,2.94V6.28H2.81a.26.26,0,0,0-.17.07.29.29,0,0,0-.07.18v1a.24.24,0,0,0,.07.18.24.24,0,0,0,.16.07H6l0,3.33a.25.25,0,0,0,.24.25h.92a.2.2,0,0,0,.16-.07.23.23,0,0,0,.07-.17l0-3.33,3.19,0a.24.24,0,0,0,.16-.07.24.24,0,0,0,.07-.18v-1a.25.25,0,0,0-.24-.25l-3.19,0Z"/></svg>