<svg id="Layer_1" data-name="Layer 1" xmlns="http://www.w3.org/2000/svg" viewBox="0 0 21.86 19.92"><path d="M17.78,0A4.35,4.35,0,0,0,15,1.24l0,.05h0l-.06.08-.07.08L5,11.28,5,11.36a2.57,2.57,0,0,0,3.71,3.55,1.09,1.09,0,0,0,.13-.17l.13-.11L16.26,7.4a1.06,1.06,0,0,0,.22-1.2,1,1,0,0,0-1.07-.59,1.08,1.08,0,0,0-.62.31L7.47,13.15l-.09.11,0,0v0a.61.61,0,0,0-.15.12.48.48,0,1,1-.68-.69l9.93-10,.06-.08a1.89,1.89,0,0,1,2.63-.15l.15.11,0,0,.09.11a2,2,0,0,1-.34,2.73l-.05,0L8.25,16.6a.39.39,0,0,0-.1.08A3.75,3.75,0,0,1,3,16.9a3.75,3.75,0,0,1,.17-5.08l.06-.07L12.1,3a1,1,0,0,0,.22-1.2,1,1,0,0,0-1.07-.58,1.08,1.08,0,0,0-.62.31l-8.8,8.71-.05,0-.07.09a5.77,5.77,0,0,0-.18,8,5.77,5.77,0,0,0,8-.12.18.18,0,0,0,.07-.05h0l0,0v0l.06-.07L9.76,18,20.5,7a1.12,1.12,0,0,0,.19-.24,4,4,0,0,0,.17-5.46l-.09-.06a1,1,0,0,0-.16-.2A3.7,3.7,0,0,0,17.78,0Z"/></svg>