<svg id="Layer_1" data-name="Layer 1" xmlns="http://www.w3.org/2000/svg" viewBox="0 0 22 24"><path d="M4.78,0a1,1,0,0,0-1,1V2H1a1,1,0,0,0-.69.29A1,1,0,0,0,0,3V23a1.06,1.06,0,0,0,.27.72A1,1,0,0,0,1,24H21a1,1,0,0,0,.69-.28A1.06,1.06,0,0,0,22,23V3a1,1,0,0,0-.27-.71A1,1,0,0,0,21,2H18.17V1a1,1,0,0,0-1-1h-1a1,1,0,0,0-1,1V2H6.7V1a1,1,0,0,0-1-1Zm0,1h1V4h-1ZM16.26,1h1V4h-1ZM1,3H3.83V4a1,1,0,0,0,1,1h1a1,1,0,0,0,1-1V3h8.6V4a1,1,0,0,0,1,1h1a1,1,0,0,0,1-1V3H21V6.5H1ZM1,7.5H21V23H1Zm2.87,2V21H18.17V9.5Zm1,1H7.17V13H4.78Zm3.35,0h2.39V13H8.13Zm3.35,0h2.39V13H11.48Zm3.35,0h2.39V13H14.83ZM4.78,14H7.17v2.5H4.78Zm3.35,0h2.39v2.5H8.13Zm3.35,0h2.39v2.5H11.48Zm3.35,0h2.39v2.5H14.83Zm-10,3.5H7.17V20H4.78Zm3.35,0h2.39V20H8.13Zm3.35,0h2.39V20H11.48Zm3.35,0h2.39V20H14.83Z"/></svg>