<svg id="Layer_1" data-name="Layer 1" xmlns="http://www.w3.org/2000/svg" viewBox="0 0 17 17"><defs><style>.cls-1{fill-rule:evenodd;}</style></defs><path class="cls-1" d="M8.5,0C6.19,0,5.9,0,5,.05a6.21,6.21,0,0,0-2.07.4,3.94,3.94,0,0,0-1.5,1,3.94,3.94,0,0,0-1,1.5A6.21,6.21,0,0,0,.05,5c0,.9,0,1.19,0,3.5S0,11.1.05,12a6.21,6.21,0,0,0,.4,2.07,3.94,3.94,0,0,0,1,1.5,3.94,3.94,0,0,0,1.5,1A6.21,6.21,0,0,0,5,17c.9,0,1.19.05,3.5.05S11.1,17,12,17a6.21,6.21,0,0,0,2.07-.4,4.37,4.37,0,0,0,2.48-2.48A6.21,6.21,0,0,0,17,12c0-.9.05-1.19.05-3.5S17,5.9,17,5a6.21,6.21,0,0,0-.4-2.07,3.94,3.94,0,0,0-1-1.5,3.94,3.94,0,0,0-1.5-1A6.21,6.21,0,0,0,12,.05C11.1,0,10.81,0,8.5,0Zm0,1.53c2.27,0,2.54,0,3.43.05a5,5,0,0,1,1.58.29,2.69,2.69,0,0,1,1,.64,2.69,2.69,0,0,1,.64,1,5,5,0,0,1,.29,1.58c0,.89.05,1.16.05,3.43s0,2.54-.05,3.43a5,5,0,0,1-.29,1.58,2.85,2.85,0,0,1-1.62,1.62,5,5,0,0,1-1.58.29c-.89,0-1.16.05-3.43.05s-2.54,0-3.43-.05a5,5,0,0,1-1.58-.29,2.69,2.69,0,0,1-1-.64,2.69,2.69,0,0,1-.64-1,5,5,0,0,1-.29-1.58c0-.89-.05-1.16-.05-3.43s0-2.54.05-3.43a5,5,0,0,1,.29-1.58,2.69,2.69,0,0,1,.64-1,2.69,2.69,0,0,1,1-.64,5,5,0,0,1,1.58-.29C6,1.54,6.23,1.53,8.5,1.53Zm0,2.61A4.36,4.36,0,1,0,12.86,8.5,4.36,4.36,0,0,0,8.5,4.14Zm0,7.19A2.83,2.83,0,1,1,11.33,8.5,2.83,2.83,0,0,1,8.5,11.33ZM14.06,4a1,1,0,1,1-1-1A1,1,0,0,1,14.06,4Z"/></svg>