<svg id="Layer_1" data-name="Layer 1" xmlns="http://www.w3.org/2000/svg" viewBox="0 0 17.5 17.5"><defs><style>.cls-1{fill:#fff;}</style></defs><path class="cls-1" d="M8.75,0A8.75,8.75,0,1,1,0,8.75,8.75,8.75,0,0,1,8.75,0ZM4.52,11.7a.31.31,0,0,0,0,.44l.84.84a.29.29,0,0,0,.22.09A.31.31,0,0,0,5.8,13l3-3,2.95,3a.29.29,0,0,0,.21.09.31.31,0,0,0,.22-.09l.85-.85a.31.31,0,0,0,0-.44l-3-3L13,5.8a.3.3,0,0,0,0-.44l-.84-.84a.31.31,0,0,0-.44,0L8.75,7.43l-3-2.91a.31.31,0,0,0-.44,0l-.84.84a.31.31,0,0,0,0,.44l3,2.93Z"/></svg>