<svg id="Layer_1" data-name="Layer 1" xmlns="http://www.w3.org/2000/svg" viewBox="0 0 18 11"><path d="M16,7.59a8.61,8.61,0,0,1,1.8,2.22c.59,1.06-.66,1.14-.66,1.14l-2.4,0a1.62,1.62,0,0,1-1.2-.39c-.9-.66-1.77-2.39-2.41-2.16s-.65,1.78-.65,1.78a.65.65,0,0,1-.15.39.56.56,0,0,1-.49.12H8.81A5.6,5.6,0,0,1,4.35,8.66C2.06,6.12.05,1.13.05,1.13a.61.61,0,0,1,0-.47C.2.5.59.5.59.5H3.16a.64.64,0,0,1,.41.16A1,1,0,0,1,3.8,1a18.13,18.13,0,0,0,1,2.13c1.07,2,1.56,2.41,1.91,2.21.56-.31.4-2.81.4-2.81a2.93,2.93,0,0,0-.27-1.31A1.19,1.19,0,0,0,6,.79c-.15,0,.09-.38.4-.55A5.77,5.77,0,0,1,8.66,0,4.28,4.28,0,0,1,9.92.13c.89.23.58,1.12.58,3.24,0,.69-.09,1.63.35,2,.19.13.68,0,1.89-2.17a18.32,18.32,0,0,0,1-2.27A.86.86,0,0,1,14,.58.9.9,0,0,1,14.32.5H17s.82-.1,1,.29-.31,1.38-1.42,3C14.75,6.33,14.54,6.09,16,7.59Z"/></svg>