<svg width="402" height="341" viewBox="0 0 402 341" fill="none" xmlns="http://www.w3.org/2000/svg">
<path d="M93.0988 218.415L113.446 204.154C114.054 203.729 114.572 203.188 114.971 202.562C115.37 201.936 115.642 201.237 115.771 200.507C115.9 199.776 115.883 199.026 115.722 198.302C115.561 197.577 115.259 196.891 114.833 196.283C114.407 195.676 113.866 195.158 113.239 194.759C112.613 194.361 111.915 194.09 111.183 193.961C110.452 193.833 109.703 193.85 108.979 194.012C108.254 194.173 107.569 194.476 106.961 194.902L86.6144 209.162C85.3875 210.022 84.5524 211.334 84.2929 212.81C84.0334 214.286 84.3707 215.804 85.2305 217.031C86.0904 218.258 87.4024 219.093 88.878 219.352C90.3536 219.612 91.8719 219.274 93.0988 218.415Z" fill="white"/>
<path d="M252.145 73.8494C258.015 77.5881 263.754 81.4141 269.361 85.3271" stroke="#2F2E41" stroke-miterlimit="10"/>
<path d="M139.28 54.7197C165.51 60.452 194.147 70.3477 222.995 84.3135C243.89 94.3619 263.884 106.222 282.752 119.76" stroke="#2F2E41" stroke-miterlimit="10"/>
<path d="M114.411 50.8938C122.398 51.777 130.712 53.0533 139.28 54.7197" stroke="#2F2E41" stroke-miterlimit="10"/>
<path d="M36.482 133.151C21.6597 111.754 16.5679 91.5376 24.1834 75.8543C32.6065 58.5079 55.1533 49.6345 85.7164 48.981" stroke="#2F2E41" stroke-miterlimit="10"/>
<path d="M344.873 180.975C357.067 200.917 360.851 219.613 353.895 234.364C347.775 247.345 334.099 255.658 315.272 259.406" stroke="#2F2E41" stroke-miterlimit="10"/>
<path d="M282.751 119.76C294.928 128.444 306.438 138.035 317.184 148.455" stroke="#2F2E41" stroke-miterlimit="10"/>
<path d="M28.3281 23.49C52.3594 18.4763 83.4573 19.3675 118.237 26.0255" stroke="#2F2E41" stroke-miterlimit="10"/>
<path d="M382.226 180.975C392.998 197.09 399.624 212.684 401.355 226.886" stroke="#2F2E41" stroke-miterlimit="10"/>
<path d="M269.36 85.3271C280.084 91.4924 290.286 97.869 299.968 104.457" stroke="#2F2E41" stroke-miterlimit="10"/>
<path d="M250.128 112.239H259.326C259.326 112.239 267.758 172.736 261.626 178.43C255.494 184.123 238.63 187.682 236.331 178.43C234.031 169.177 236.331 135.014 236.331 135.014L250.128 112.239Z" fill="#085FE0"/>
<path d="M193.466 121.1C222.013 121.1 245.155 93.9911 245.155 60.5502C245.155 27.1093 222.013 0 193.466 0C164.918 0 141.776 27.1093 141.776 60.5502C141.776 93.9911 164.918 121.1 193.466 121.1Z" fill="black"/>
<path d="M183.038 72.8103C183.038 72.8103 185.828 95.3989 177.458 100.19C169.088 104.982 187.223 132.362 187.223 132.362L208.846 137.838L223.494 117.987L220.704 97.4524C220.704 97.4524 203.964 81.0244 211.636 65.9653L183.038 72.8103Z" fill="#D1D1D1"/>
<path opacity="0.1" d="M183.038 72.8103C183.038 72.8103 185.828 95.3989 177.458 100.19C169.088 104.982 187.223 132.362 187.223 132.362L208.846 137.838L223.494 117.987L220.704 97.4524C220.704 97.4524 203.964 81.0244 211.636 65.9653L183.038 72.8103Z" fill="#D1D1D1"/>
<path d="M151.486 323.819C151.486 323.819 142.931 400.877 151.486 419.258C160.041 437.639 182.856 489.247 182.856 489.247L175.726 504.093L194.976 499.851L202.819 485.005C202.819 485.005 193.55 448.95 192.124 436.225C190.699 423.5 180.004 400.17 180.004 400.17L199.967 316.042L151.486 323.819Z" fill="#D1D1D1"/>
<path d="M218.571 311.247C218.571 311.247 219.264 389.609 224.114 401.764L221.343 507.908L236.585 510C236.585 510 258.756 420.953 255.292 399.582C251.827 378.211 255.984 301.274 255.984 301.274L218.571 311.247Z" fill="#D1D1D1"/>
<path d="M193.958 81.7183C208.639 81.7183 220.541 69.8167 220.541 55.1353C220.541 40.4539 208.639 28.5522 193.958 28.5522C179.277 28.5522 167.375 40.4539 167.375 55.1353C167.375 69.8167 179.277 81.7183 193.958 81.7183Z" fill="#D1D1D1"/>
<path d="M285.521 322.931C285.521 322.931 266.493 335.706 258.741 326.479C250.989 317.253 155.851 332.157 143.871 329.318C131.89 326.479 150.213 281.056 150.213 257.635C150.213 240.111 156.527 213.454 159.706 201.133C160.777 196.988 161.489 194.468 161.489 194.468C161.489 194.468 168.719 173.751 167.366 165.142C167.275 164.489 167.097 163.852 166.838 163.247C166.725 162.994 166.586 162.753 166.422 162.53C163.046 157.995 153.37 124.921 149.614 110.719C149.001 108.617 148.495 106.485 148.099 104.331C148.099 102.202 174.174 95.8146 180.693 95.5094C187.218 95.2043 188.973 104.331 188.973 104.331C191.087 105.751 200.954 130.592 200.954 130.592L210.115 107.17C210.115 107.17 209.41 102.202 208.706 102.202C208.001 102.202 219.129 95.5024 219.129 95.5024C219.129 95.5024 230.552 103.622 236.895 102.202C243.237 100.783 258.037 113.558 258.037 113.558C258.037 113.558 231.962 179.564 242.533 193.758C253.103 207.953 285.521 322.931 285.521 322.931Z" fill="#3384FE"/>
<path opacity="0.1" d="M166.946 162.711C163.473 158.12 153.517 124.645 149.652 110.27H153.169C153.169 110.27 162.001 144.515 167.374 163.436C167.258 163.18 167.115 162.937 166.946 162.711Z" fill="black"/>
<path opacity="0.1" d="M213.513 208.707C213.513 208.707 203.684 209.386 167.876 202.596C165.381 202.132 162.913 201.541 160.482 200.823C161.55 196.858 162.259 194.447 162.259 194.447C162.259 194.447 169.463 174.627 168.115 166.39C169.793 172.094 171.042 175.944 171.386 176.114C172.791 176.793 217.726 184.262 224.045 186.978C230.364 189.694 213.513 208.707 213.513 208.707Z" fill="black"/>
<path opacity="0.1" d="M225.463 117.049C225.463 117.049 245.063 114.656 246.277 117.801C247.491 120.945 252.466 151.335 254.597 155.231C256.729 159.127 257.44 183.283 248.913 184.062C240.385 184.842 229.016 176.27 231.148 169.257C233.28 162.244 225.463 117.049 225.463 117.049Z" fill="black"/>
<path d="M216.195 181.293C216.195 181.293 246.46 184.752 251.504 181.293C256.548 177.834 277.445 177.834 273.121 187.519C268.798 197.204 231.327 197.896 231.327 197.896H209.71L216.195 181.293Z" fill="#D1D1D1"/>
<path d="M153.458 105.347H148.517C148.517 105.347 138.636 107.451 140.047 138.299C141.459 169.147 131.578 189.478 167.574 196.489C203.569 203.5 213.451 202.799 213.451 202.799C213.451 202.799 230.39 183.168 224.038 180.364C217.686 177.56 172.514 169.848 171.103 169.147C169.691 168.446 153.458 105.347 153.458 105.347Z" fill="#3384FE"/>
<path d="M245.154 120.21C245.154 120.21 232.956 73.8418 223.209 73.8418C213.463 73.8418 202.325 75.9579 210.679 85.1275C219.032 94.2971 229.475 104.172 230.171 109.109C230.867 114.047 233.652 121.1 233.652 121.1L245.154 120.21Z" fill="#D1D1D1"/>
<path d="M227.433 117.049C227.433 117.049 248.297 114.656 249.59 117.801C250.882 120.945 256.177 151.335 258.447 155.231C260.716 159.127 261.473 183.283 252.395 184.062C243.318 184.842 231.215 176.27 233.484 169.257C235.754 162.244 227.433 117.049 227.433 117.049Z" fill="#3384FE"/>
<path d="M188.051 56.1196C202.188 56.1196 213.649 44.218 213.649 29.5366C213.649 14.8552 202.188 2.95361 188.051 2.95361C173.913 2.95361 162.452 14.8552 162.452 29.5366C162.452 44.218 173.913 56.1196 188.051 56.1196Z" fill="black"/>
<path d="M254.057 257.493C223.841 252.517 189.657 241.699 155.174 225.194C115.912 206.402 82.6421 183.29 58.9355 159.932" stroke="#2F2E41" stroke-miterlimit="10"/>
<path d="M131.628 236.451C104.565 222.407 80.0636 206.795 58.9355 190.54" stroke="#2F2E41" stroke-miterlimit="10"/>
<path d="M319.42 59.695C329.985 59.695 338.549 51.1304 338.549 40.5654C338.549 30.0004 329.985 21.4358 319.42 21.4358C308.855 21.4358 300.29 30.0004 300.29 40.5654C300.29 51.1304 308.855 59.695 319.42 59.695Z" fill="#F2F2F2"/>
<path d="M326.2 52.0429C336.237 52.0429 344.374 43.4783 344.374 32.9133C344.374 22.3483 336.237 13.7837 326.2 13.7837C316.164 13.7837 308.027 22.3483 308.027 32.9133C308.027 43.4783 316.164 52.0429 326.2 52.0429Z" stroke="#2F2E41" stroke-miterlimit="10"/>
<path d="M31.5058 357.394C48.906 357.394 63.0116 343.288 63.0116 325.888C63.0116 308.488 48.906 294.382 31.5058 294.382C14.1056 294.382 0 308.488 0 325.888C0 343.288 14.1056 357.394 31.5058 357.394Z" fill="#F2F2F2"/>
<path d="M38.3974 344.595C55.7976 344.595 69.9032 330.269 69.9032 312.596C69.9032 294.924 55.7976 280.598 38.3974 280.598C20.9972 280.598 6.8916 294.924 6.8916 312.596C6.8916 330.269 20.9972 344.595 38.3974 344.595Z" stroke="#2F2E41" stroke-miterlimit="10"/>
</svg>
