<svg width="180" height="322" viewBox="0 0 180 322" fill="none" xmlns="http://www.w3.org/2000/svg">
<ellipse cx="88" cy="311.5" rx="88" ry="10.5" fill="#C4C4C4" fill-opacity="0.27"/>
<path d="M175 35.2399V21.5529C175.001 21.0996 174.881 20.654 174.651 20.2621C174.421 19.8701 174.09 19.5459 173.692 19.3226L166 15.0716C165.192 14.6141 162 16.4632 162 17.3782L164.173 40.8634L169.577 45L174.981 41.8546L175 35.2399Z" fill="white"/>
<path d="M175 35.2399V21.5529C175.001 21.0996 174.881 20.654 174.651 20.2621C174.421 19.8701 174.09 19.5459 173.692 19.3226L166 15.0716C165.192 14.6141 162 16.4632 162 17.3782L164.173 40.8634L169.577 45L174.981 41.8546L175 35.2399Z" fill="#E3EEFF"/>
<path d="M173 36.9481V22.8324C173.002 22.368 172.88 21.9116 172.646 21.511C172.412 21.1103 172.076 20.7802 171.671 20.555L163.856 16.1573C163.667 16.0522 163.454 15.998 163.238 16.0001C163.022 16.0021 162.811 16.0604 162.624 16.1691C162.437 16.2778 162.281 16.4334 162.172 16.6205C162.063 16.8077 162.003 17.0201 162 17.2371V42.7594L167.49 47L172.98 43.7803L173 36.9481Z" fill="white"/>
<path d="M171 35.9993V25.2719L163 20V37.7443L164.758 43.7142L168.486 45C168.486 45 170.473 44.1183 170.473 43.8428" fill="#3384FE"/>
<path d="M48.8829 138.438L50 140L45.9785 80.698L45.1779 68.7837L49 58L42.6831 67.6848C38.7361 76.3024 30.5441 94.3282 28.2541 99.2636C25.629 104.932 44.0981 131.614 48.8829 138.438Z" fill="#EFEFEF"/>
<path d="M77.5305 300.845C79.3378 301.699 80.831 303.132 81.7895 304.931C81.9882 305.33 82.0486 305.788 81.9606 306.227C81.8213 306.553 81.6146 306.843 81.3551 307.077C81.0956 307.312 80.7895 307.484 80.4585 307.583C75.6671 309.548 70.2483 309.174 65.2477 308.231C60.2287 306.961 55.1032 306.191 49.9419 305.933C49.5049 306.005 49.0579 305.98 48.6314 305.858C48.2048 305.736 47.8088 305.52 47.4701 305.226C47.1518 304.733 46.9982 304.147 47.0328 303.556C46.8252 298.919 47.604 294.292 49.3144 290C49.2003 290.275 62.871 290.845 64.0499 291.67C66.2174 293.222 68.0237 295.206 70.3434 296.64C72.663 298.074 75.1157 299.43 77.5305 300.845Z" fill="#282328"/>
<path d="M58.6675 201.974C58.7613 219.699 57.3676 237.4 54.5009 254.892C54.0379 257.935 53.5363 260.958 52.919 263.981C48.3666 286.319 48 292 48 292H66.2872C66.2872 292 79.7903 228.741 84.8058 214.337C88.5993 203.42 91.5592 192.232 93.66 180.869C94.4789 175.484 93.812 169.978 91.731 164.943C91.0254 162.958 90.0168 161.094 88.741 159.417C86.2563 156.677 83.1461 154.576 79.6746 153.293C72.2899 149.959 64.3017 148.164 56.1983 148.017C55.273 147.938 54.3456 148.14 53.5363 148.594C53.0184 149.019 52.6085 149.56 52.3403 150.173C49.9676 154.988 50.4113 160.649 51.1443 165.964C51.4634 168.915 52.1104 171.821 53.0733 174.629C54.1536 177.499 55.8512 180.098 56.835 183.006C57.6721 185.805 58.1645 188.696 58.301 191.614C58.4168 195.061 58.5903 198.508 58.6675 201.974Z" fill="#282328"/>
<path d="M104.133 188.061C103.758 190.361 103.613 192.694 103.7 195.024C103.775 199.202 103.644 203.381 103.305 207.545C102.308 227.375 99.3721 247.129 99.3533 266.978C99.3533 283.904 99.899 301.599 99.899 301.599C99.899 301.599 85.4657 306.138 82.1349 302.734L76.5837 220.99C75.7369 214.816 74.4384 208.545 74.0056 202.333C73.6292 196.928 73.5163 192.35 71.5404 187.157C69.3199 181.387 66.1585 175.944 64.4461 169.943C63.3382 166.101 62.8612 162.097 63.0348 158.095C62.9799 156.868 63.3095 155.655 63.9757 154.633C64.6333 153.937 65.4379 153.404 66.3279 153.075C76.3202 148.536 86.6889 143.919 97.6221 144.016C98.5042 143.941 99.3883 144.135 100.163 144.573C100.9 145.196 101.432 146.036 101.687 146.978C105.708 157.826 106.946 169.546 105.281 181.022C104.848 183.503 104.472 185.772 104.133 188.061Z" fill="#444444"/>
<path d="M158.959 49.2147C159.405 46.6118 159.347 43.8933 159.58 41.252C159.59 40.2152 159.871 39.1989 160.396 38.3021C160.675 37.8638 161.098 37.5344 161.593 37.3694C162.088 37.2043 162.625 37.2137 163.114 37.396C164.318 37.9936 164.357 39.6325 164.318 40.9628C164.279 42.2931 164.629 43.9898 165.949 44.2404C166.447 44.2884 166.947 44.1877 167.386 43.9512C168.045 43.6008 168.612 43.1031 169.044 42.4975C169.475 41.8918 169.759 41.1948 169.872 40.4615C169.989 39.5939 169.872 38.6877 170.027 37.8201C170.532 35.3137 173.795 35.7379 175.31 37.0489C176.202 37.9049 176.927 38.9183 177.446 40.0374C178.543 41.9319 179.348 43.979 179.834 46.1106C181.446 54.8059 170.882 56.676 166.416 62.2287C165.773 63.0905 165.059 63.8967 164.279 64.6387C163.521 65.2844 162.605 65.7205 161.623 65.9032C160.642 66.086 159.629 66.0089 158.687 65.6798C157.749 65.3368 156.921 64.7525 156.286 63.9868C155.652 63.2211 155.233 62.3016 155.075 61.3225C154.55 58.0835 156.919 55.1722 158.085 52.0874C158.467 51.1594 158.759 50.1975 158.959 49.2147Z" fill="#D8D8D8"/>
<path d="M84.4205 26.6268C84.2416 26.8719 84.1056 27.1461 84.0185 27.4376C83.8854 28.0285 83.8854 28.642 84.0185 29.233C84.7951 32.7236 85.3261 36.2653 85.6076 39.8314C85.7563 40.83 85.5675 41.85 85.0715 42.7272C84.2811 43.5755 83.1987 44.0867 82.0464 44.1558C80.3691 44.4264 78.6709 44.5427 76.9727 44.5033C76.3026 44.5033 75.4793 44.5033 75.0581 45.0631C74.9158 45.3169 74.8369 45.6018 74.8283 45.8932C74.7493 47.2232 75.0062 48.5516 75.575 49.7542C75.9234 50.3353 76.0964 51.0061 76.0728 51.6847C75.9388 52.9203 74.1582 52.8044 73.2391 52.8624C69.7545 53.0361 66.2508 53.0554 62.7661 52.8624C62.1642 52.8883 61.5653 52.7622 61.0238 52.4956C60.0857 51.9357 59.8751 50.6809 59.607 49.6191C58.42 44.6963 54.6482 40.8739 52.6187 36.2407C51.5736 33.7722 51.0238 31.1195 51.0008 28.4356C50.9777 25.7518 51.4821 23.0899 52.4846 20.6036C53.4484 18.2347 54.8228 16.0579 56.5436 14.175C58.1136 12.4182 61.1387 12.0514 63.3214 11.5881C67.1507 10.7773 71.4011 10.5456 74.8091 12.6113C78.6384 14.9279 80.3998 19.6769 84.2482 21.897C84.9183 22.2831 85.7416 22.6692 85.9714 23.4221C86.0308 23.8045 85.9974 24.1957 85.874 24.5622C85.7506 24.9286 85.541 25.2595 85.263 25.5264C85.0141 25.9125 84.6886 26.2407 84.4205 26.6268Z" fill="#D8D8D8"/>
<path d="M73.9418 11.2406C73.8563 11.8399 73.6755 12.4213 73.4063 12.9622C72.1823 15.5349 70.5759 14.8966 68.3766 15.2254C65.6992 15.709 63.9588 18.746 63.4042 21.222C62.9264 24.224 63.0238 27.2909 63.691 30.2557C63.102 29.7647 62.3758 29.4728 61.6143 29.4207C60.8528 29.3687 60.0943 29.5592 59.4454 29.9655C58.8136 30.4105 58.3222 31.0306 58.0305 31.7512C57.7387 32.4718 57.6589 33.2624 57.8007 34.0278C57.9588 34.7966 58.3251 35.5058 58.8587 36.0763C59.3923 36.6467 60.0722 37.0559 60.8224 37.2582C61.5682 37.4517 62.4479 37.4903 62.9069 38.1094C63.1558 38.556 63.2627 39.0693 63.2129 39.5795C63.2129 42.868 63.0791 46.4466 61.0136 49C58.1449 48.7098 55.9647 46.3886 53.8227 44.4542C50.7819 41.7073 47.3012 39.4634 44.3752 36.5812C41.2732 33.8281 39.347 29.9661 39.0012 25.8066C38.9055 19.1329 44.7385 13.9874 46.8805 7.7006C47.2635 6.28497 47.7691 4.90623 48.3914 3.58034C48.9647 2.66994 49.7201 1.89095 50.6089 1.29345C51.4977 0.695959 52.5003 0.293188 53.5522 0.111004C54.604 -0.0711798 55.682 -0.0287412 56.7167 0.235608C57.7514 0.499957 58.7199 0.980362 59.5601 1.64594C61.1019 0.620037 62.907 0.073326 64.7524 0.073326C66.5979 0.073326 68.403 0.620037 69.9448 1.64594C71.3568 2.77455 72.4638 4.24605 73.1627 5.92357C73.8615 7.60109 74.1295 9.43012 73.9418 11.2406Z" fill="#444444"/>
<path d="M45.6981 84.2215C46.4955 90.3979 46.7536 96.6314 46.4696 102.852C46.296 108.928 46.0067 114.966 45.756 121.042C46.9325 126.274 48.244 131.507 49.6134 136.682C50.483 140.91 51.9164 145.003 53.8758 148.853C54.8641 150.705 56.1693 152.372 57.7331 153.779C59.2728 155.124 61.0259 156.205 62.9213 156.98C67.3741 158.618 72.1327 159.273 76.8658 158.897C80.2032 158.766 83.5155 158.265 86.7407 157.402C90.8853 156.374 94.734 154.406 97.9849 151.652C99.6174 150.201 101.045 148.538 102.228 146.707C105.062 142.194 106.774 137.076 107.223 131.775C108.192 123.075 107.062 114.271 103.925 106.091C103.752 105.612 103.559 105.152 103.366 104.673C102.035 101.299 100.704 97.9261 99.335 94.5526C99.335 94.5526 99.335 94.4568 99.335 94.4185C99.1229 93.8818 98.9107 93.3834 98.7178 92.8659L98.6021 92.5784L99.3544 92.8851L100.145 93.1726C100.396 93.2729 100.654 93.3562 100.917 93.4218C101.476 93.6326 102.074 93.786 102.633 93.9393L104.562 94.4185C105.661 94.6485 106.78 94.8593 107.898 94.9935L109.422 95.166C123.444 96.3927 138.738 90.7575 150.465 84.5282C154.292 82.5933 157.793 80.0778 160.841 77.0721C161.476 76.4015 162.075 75.6977 162.635 74.9637C164.039 73.1264 165.073 71.0375 165.682 68.8111C166.106 67.4632 166.106 66.0189 165.682 64.671C165.654 64.6173 165.622 64.566 165.586 64.5176C165.163 63.5955 164.575 62.7576 163.85 62.0451C162.068 60.1048 160.181 58.2621 158.199 56.5249L157.582 55.9882C157.05 55.5245 156.426 55.1783 155.749 54.9724C155.083 54.8242 154.393 54.8229 153.726 54.9686C153.06 55.1143 152.434 55.4035 151.892 55.8157C150.906 56.5 149.989 57.2766 149.153 58.1349C143.799 63.2081 137.448 67.1275 130.498 69.6474C123.549 72.1672 116.15 73.2333 108.766 72.7787C104.712 72.6091 100.73 71.6587 97.0399 69.9803C93.8027 68.2365 90.7965 66.0988 88.0908 63.6168C85.6456 61.627 83.3146 59.5025 81.1089 57.2533C80.5303 56.6399 79.9324 56.0074 79.4117 55.3366C78.8909 54.6657 78.563 54.3015 78.158 53.784L77.6566 53.1323C77.2169 52.4678 76.6379 51.9055 75.9593 51.4839C74.9869 51.0405 73.9232 50.8304 72.8541 50.8706C68.6688 50.6981 64.1171 49.9122 59.9897 50.0081H59.5461C59.1447 50.0233 58.745 50.0681 58.3503 50.1422C56.9219 50.3654 55.5852 50.9831 54.493 51.9248C53.15 53.2076 51.9237 54.6058 50.8285 56.1032C48.2609 58.8991 46.2457 62.1502 44.8881 65.6868C42.8822 71.552 44.7724 77.973 45.6981 84.2215Z" fill="white"/>
<path d="M45.6981 84.2215C46.4955 90.3979 46.7536 96.6314 46.4696 102.852C46.296 108.928 46.0067 114.966 45.756 121.042C46.9325 126.274 48.244 131.507 49.6134 136.682C50.483 140.91 51.9164 145.003 53.8758 148.853C54.8641 150.705 56.1693 152.372 57.7331 153.779C59.2728 155.124 61.0259 156.205 62.9213 156.98C67.3741 158.618 72.1327 159.273 76.8658 158.897C80.2032 158.766 83.5155 158.265 86.7407 157.402C90.8853 156.374 94.734 154.406 97.9849 151.652C99.6174 150.201 101.045 148.538 102.228 146.707C105.062 142.194 106.774 137.076 107.223 131.775C108.192 123.075 107.062 114.271 103.925 106.091C103.752 105.612 103.559 105.152 103.366 104.673C101.843 101.373 100.498 97.9945 99.335 94.5526C99.335 94.5526 99.335 94.4568 99.335 94.4185C99.1808 93.8435 99.0457 93.3068 98.9107 92.7509C99.0526 92.8132 99.2016 92.8583 99.3544 92.8851L100.145 93.1726C100.396 93.2729 100.654 93.3562 100.917 93.4218C101.476 93.6326 102.074 93.786 102.633 93.9393L104.562 94.4185C105.661 94.6485 106.78 94.8593 107.898 94.9935L109.422 95.166C123.637 96.6035 138.217 91.0834 150.465 84.5282C154.292 82.5933 157.793 80.0778 160.841 77.0721C161.476 76.4015 162.075 75.6977 162.635 74.9637C164.039 73.1264 165.073 71.0375 165.682 68.8111C166.106 67.4632 166.106 66.0189 165.682 64.671C165.654 64.6173 165.622 64.566 165.586 64.5176C165.163 63.5955 164.575 62.7576 163.85 62.0451C162.068 60.1048 160.181 58.2621 158.199 56.5249L157.582 55.9882C157.05 55.5245 156.426 55.1783 155.749 54.9724C155.083 54.8242 154.393 54.8229 153.726 54.9686C153.06 55.1143 152.434 55.4035 151.892 55.8157C150.906 56.5 149.989 57.2766 149.153 58.1349C143.799 63.2081 137.448 67.1275 130.498 69.6474C123.549 72.1672 116.15 73.2333 108.766 72.7787C104.712 72.6091 100.73 71.6587 97.0399 69.9803C93.8027 68.2365 90.7965 66.0988 88.0908 63.6168C85.6456 61.627 83.3146 59.5025 81.1089 57.2533C80.5303 56.6399 79.9324 56.0074 79.4117 55.3366C78.8909 54.6657 78.563 54.3015 78.158 53.784L77.6566 53.1323C77.2169 52.4678 76.6379 51.9055 75.9593 51.4839C74.9869 51.0405 73.9232 50.8304 72.8541 50.8706C68.6688 50.6981 64.1171 49.9122 59.9897 50.0081H59.5461C59.1447 50.0233 58.745 50.0681 58.3503 50.1422C56.9497 50.4514 55.6335 51.0597 54.493 51.9248C53.15 53.2076 51.9237 54.6058 50.8285 56.1032C48.2609 58.8991 46.2457 62.1502 44.8881 65.6868C42.8822 71.552 44.7724 77.973 45.6981 84.2215Z" fill="#EFEFEF"/>
<path d="M111.543 311.279C113.349 312.083 114.84 313.442 115.79 315.152C115.988 315.53 116.048 315.964 115.961 316.381C115.824 316.689 115.618 316.963 115.359 317.182C115.1 317.401 114.793 317.56 114.463 317.647C109.684 319.509 104.28 319.174 99.1983 318.28C94.1867 317.075 89.0687 316.345 83.915 316.101C83.4821 316.169 83.0396 316.144 82.6176 316.028C82.1955 315.912 81.8037 315.709 81.4688 315.431C81.1514 314.964 80.9982 314.409 81.0328 313.848C80.8257 309.454 81.6024 305.068 83.3082 301C83.1944 301.261 96.8281 301.782 97.9848 302.583C100.165 304.054 101.967 305.935 104.28 307.294C106.593 308.653 109.134 309.864 111.543 311.279Z" fill="#282328"/>
</svg>
