<svg id="Layer_1" data-name="Layer 1" xmlns="http://www.w3.org/2000/svg" xmlns:xlink="http://www.w3.org/1999/xlink" viewBox="0 0 88 22"><defs><style>.cls-1{fill:none;}.cls-2{clip-path:url(#clip-path);}.cls-3{fill:#221f20;}.cls-3,.cls-4{fill-rule:evenodd;}.cls-4{fill:#f9cc46;}</style><clipPath id="clip-path"><rect class="cls-1" width="88" height="22"/></clipPath></defs><g class="cls-2"><path class="cls-3" d="M47.31,5.33c.21.22,2.12,5.49,2.32,6.15a8.64,8.64,0,0,0,.83,2c.66.15.72-.54.92-1.08,1.08-3,2.73-7.27,3.55-10.18.57-1.4.62-1.78-.41-1.78s-.92.7-1.33,1.62c-.36,1.73-1.76,5.39-2.27,7.07,0,.22,0,.22-.26.22-.86-2.5-1.86-5.56-2.83-8-.26-.48-.72-.58-1,.5C46.28,3.52,45.55,5.56,45,7.23c0,0-.67,2.11-.72,2.21A7,7,0,0,1,43.5,7.5c-.77-2-1.44-4.14-2.1-6.13-.17-.38-.17-.6-.53-.82A2.08,2.08,0,0,0,39.74.44c-1,.17-.36,1-.15,1.67,1.25,3.5,2.63,7.71,4,11.05a.62.62,0,0,0,.15.21.67.67,0,0,0,.23.1.42.42,0,0,0,.25,0,.45.45,0,0,0,.2-.16C44.63,12.87,47.16,5.33,47.31,5.33Z"/><path class="cls-3" d="M.2.65a1.1,1.1,0,0,0,0,.65C.46,2.21-.16,12.61,0,13a2.41,2.41,0,0,0,1.61.15c.24-.27.15-.53.15-1,0-1.84.14-3.61.14-5.5C2,6,2,5.54,2,5.11s0-.38.1-.49A27.42,27.42,0,0,1,4,7.82c.31.63.92,1.61,1.33,2.37.62,1.18.93.37,1.08.1.37-.48,3.15-5.6,3.35-5.7a55.36,55.36,0,0,1,.19,5.7c0,2.8-.31,3.07,1.38,3,.53,0,.57-.43.53-.91V9.48c-.14-2.32-.24-5-.24-7.27,0-.27.1-1.3.1-1.45a1,1,0,0,0-.59-.34,1,1,0,0,0-.66.11c-.36.23-.46.71-.72,1-1,1.94-2.45,4.15-3.44,6C6,8.19,6,8,5.65,7.54,5,6.51,4.11,4.74,3.5,3.71L2.25,1.56a4.3,4.3,0,0,0-.66-1C1.24.27.56.48.2.65Z"/><path class="cls-3" d="M65.9,6.68a3.38,3.38,0,0,1,1.52-.74A3.2,3.2,0,0,1,69.1,6c1.64.76,1.85,3.3,1.13,4.53A2.62,2.62,0,0,1,69,11.62a2.5,2.5,0,0,1-1.62.1,3.55,3.55,0,0,1-1.44-.65Zm0-1.83a37.84,37.84,0,0,1,0-4.26c0-.59-.2-.69-.72-.49-1.25.55-1.25.33-1.07,1.52.1.59,0,7.54,0,8.51,0,1.93-.27,2.37,2.41,3.18a5.45,5.45,0,0,0,2.31,0A5.53,5.53,0,0,0,71,12.39c2.62-2.26,1.9-8.61-2.89-8.13a8.72,8.72,0,0,0-1.25.16c-.16,0-.77.43-.84.43Z"/><path class="cls-3" d="M29.59,13.14a5.09,5.09,0,0,0,.16-2.09,16.45,16.45,0,0,1,0-2.22c.15,0,.31.27.63.6s2.87,3.13,3.28,3.44a1.32,1.32,0,0,0,.51.3,1.26,1.26,0,0,0,.58,0c.36,0,.93,0,1.13-.26,0-.37-.72-1-1-1.3s-.71-.74-1.07-1.18a21.53,21.53,0,0,1-2.22-2.36c0-.12,2.83-2.61,3.35-3.08.2-.22.41-.27.36-.59a3.16,3.16,0,0,0-2,0c-.25.11-1.95,1.73-2.41,2.16-.15.15-1,1.13-1.14,1.08-.15-.5,0-7.23-.1-7.61s-1.85.22-1.8.87A6.59,6.59,0,0,1,28,2.32v9.31c0,.33-.1,1.3.11,1.46A3.22,3.22,0,0,0,29.59,13.14Z"/><path class="cls-3" d="M16.18,8.73c.57-.16,2.49.32,2.58.86a10,10,0,0,1,0,1.73c-.36.48-2.84,1.45-3.66-.27a2,2,0,0,1-.17-.79,1.92,1.92,0,0,1,.17-.78,1.7,1.7,0,0,1,.46-.5A1.59,1.59,0,0,1,16.18,8.73Zm2.63-.65a4.33,4.33,0,0,0-1.59-.69,5.61,5.61,0,0,0-2.12.15,2.83,2.83,0,0,0-1.46,1,3,3,0,0,0-.59,1.75,3.08,3.08,0,0,0,.52,1.77A2.81,2.81,0,0,0,15,13.19a4.41,4.41,0,0,0,3,0c.21-.1.62-.37.77-.42s.21.37.41.48A2,2,0,0,0,20.61,13c.27-.26.32-.22.15-.6a2.91,2.91,0,0,1-.25-1.62V6.89a2.32,2.32,0,0,0-.36-1.56c-1-2.05-6.91-1.24-6.43.49s1.24-.6,3.86-.27c1.4.16,1.25,1.56,1.25,2.53Z"/><path class="cls-3" d="M79.76,7.82H75.49a2.3,2.3,0,0,1,.66-1.41,2.46,2.46,0,0,1,1.44-.64,2.06,2.06,0,0,1,.82.1,2.19,2.19,0,0,1,.72.43,1.82,1.82,0,0,1,.49.68A2,2,0,0,1,79.76,7.82ZM75.37,9.21c.31-.16,5,0,5.83,0s.46-2.91-1.08-4.09a4.05,4.05,0,0,0-4.44-.37A4.32,4.32,0,0,0,74,6.43a4.47,4.47,0,0,0-.56,2.35A4.53,4.53,0,0,0,74,11.07a4.43,4.43,0,0,0,1.57,1.7c1.38,1,5.09.92,5.55-.59.57-1.94-.77-.86-1.25-.65a4,4,0,0,1-1.24.32A2.66,2.66,0,0,1,75.37,9.21Z"/><path class="cls-3" d="M56.69,7.81a2.26,2.26,0,0,1,.67-1.45,2.09,2.09,0,0,1,1.44-.59,1.92,1.92,0,0,1,2.11,2Zm-.21,1.31h5.77c.67,0,.56-.43.51-1a4.27,4.27,0,0,0-.62-2,4.11,4.11,0,0,0-1.51-1.45,3.81,3.81,0,0,0-3.94.14,4.25,4.25,0,0,0-1.57,1.71,4.57,4.57,0,0,0-.49,2.32,4.32,4.32,0,0,0,.49,2.29,4,4,0,0,0,1.62,1.62c1.75,1.13,5.2.65,5.51-.64,0-.37.25-1.3-.31-1.08a6.63,6.63,0,0,1-2.18.82,3,3,0,0,1-1.22-.08,3,3,0,0,1-1.09-.57C57,10.82,56.28,9.69,56.48,9.12Z"/><path class="cls-3" d="M84.44,13.19c.31-.32.26-.48.26-1v-1.3c0-1.72-.31-4.57,1.59-5,.41-.11.51.26,1,.15A2.5,2.5,0,0,0,88,5c0-.82-1.25-1-2.38-.44-.36.17-.66.76-.92.81,0-.48.1-.69-.21-1.12a2.66,2.66,0,0,0-1.13.38c-.51.26-.61.26-.51.91s0,5.12,0,6.19C82.89,13.36,82.89,13.31,84.44,13.19Z"/><path class="cls-3" d="M23.73,13.14V13a25.31,25.31,0,0,0,.11-4c0-1,.25-2.69,1.33-3,.87-.32.92.54,1.5,0,1.33-1.46-.46-2-1.55-1.56s-.93.86-1.24,1a2.29,2.29,0,0,1,0-.64c0-.27-.11-.27-.21-.43a2.13,2.13,0,0,0-1.14.33C22,4.9,21.86,5,22,5.6a18.94,18.94,0,0,1,.1,3v3C22.23,13.19,22,13.31,23.73,13.14Z"/><path class="cls-4" d="M47,14.88a26.73,26.73,0,0,0-6,1.49c-.61.28-1.24.43-1.85.71-1.25.48-2.42.91-3.65,1.4-.41.16-3.35,1.07-3.86,1.19-2.49.64-6.22,1.39-8.6.26-1.14-.59-1.25,1.24,1.33,1.89a10.2,10.2,0,0,0,4.53-.21c1.25-.27,2.74-.76,3.92-1.13s2.58-.81,3.86-1.19a9,9,0,0,1,.92-.32l1.91-.6c.36-.11.62-.26.93-.38l2-.48c.36-.11.62-.21.93-.33a35.94,35.94,0,0,1,7.93-.86,18.54,18.54,0,0,1,2.32.27c1.25.16,1-.53.15-1A12.52,12.52,0,0,0,47,14.88Z"/></g></svg>