<svg width="814" height="419" viewBox="0 0 814 419" fill="none" xmlns="http://www.w3.org/2000/svg">
<path d="M196 253.296H166.95V303.696H119V253.296H15.05L9.1 216.546L122.5 57.2963H166.95V211.646H196V253.296ZM119 211.646V131.146L63.7 211.646H119Z" fill="black"/>
<path d="M368.009 317.2C328.543 317.2 296.409 305.333 271.609 281.6C246.809 257.6 234.409 227.6 234.409 191.6C234.409 170.533 238.543 150 246.809 130C255.343 110 266.809 92.4 281.209 77.2C295.609 62 313.209 49.8666 334.009 40.8C355.076 31.4666 377.476 26.8 401.209 26.8C440.676 26.8 472.809 38.8 497.609 62.8C522.409 86.5333 534.809 116.4 534.809 152.4C534.809 173.467 530.543 194 522.009 214C513.743 234 502.409 251.6 488.009 266.8C473.609 282 455.876 294.267 434.809 303.6C414.009 312.667 391.743 317.2 368.009 317.2ZM374.809 247.6C398.276 247.6 417.609 238.4 432.809 220C448.009 201.333 455.609 180.8 455.609 158.4C455.609 140 450.143 125.067 439.209 113.6C428.543 102.133 413.609 96.4 394.409 96.4C371.209 96.4 351.876 105.733 336.409 124.4C321.209 143.067 313.609 163.467 313.609 185.6C313.609 204 318.943 218.933 329.609 230.4C340.543 241.867 355.609 247.6 374.809 247.6Z" fill="#EBF3FF"/>
<path d="M735.993 206.632L707.485 201.045L697.791 250.504L650.736 241.281L660.431 191.822L558.422 171.828L559.651 134.62L701.565 0.154873L745.185 8.70455L715.496 160.172L744.004 165.76L735.993 206.632ZM668.442 150.95L683.925 71.9527L614.174 140.313L668.442 150.95Z" fill="black"/>
<path d="M730.44 183.753L725.066 180.402L722.19 178.615L723.461 139.515C723.786 139.297 724.097 139.06 724.393 138.805C729.727 134.252 727.278 127.36 722.607 124.6C722.082 124.276 721.52 124.016 720.933 123.824C719.889 145.923 714.932 167.668 706.292 188.045C706.679 188.466 707.1 188.856 707.549 189.211C709.929 190.988 712.522 192.463 715.267 193.6C718.896 195.242 722.451 196.594 724.068 197.766L730.44 183.753Z" fill="#D8D8D8"/>
<path d="M752.814 184.333L729.537 181.093C728.684 180.975 727.817 181.168 727.095 181.637C726.373 182.106 725.843 182.819 725.601 183.647C725.552 183.814 725.515 183.985 725.49 184.157L723.626 197.588C723.5 198.53 723.749 199.484 724.321 200.243C724.892 201.002 725.738 201.505 726.677 201.642L749.954 204.883C752.674 205.262 755.434 204.544 757.625 202.886C759.817 201.228 761.261 198.765 761.64 196.04C762.02 193.315 761.303 190.551 759.647 188.355C757.992 186.16 755.534 184.713 752.814 184.333V184.333Z" fill="#6C63FF"/>
<path d="M709.522 408.02H699.756L695.109 370.282L709.524 370.283L709.522 408.02Z" fill="#D8D8D8"/>
<path d="M692.773 406.82H711.609V418.701H680.914C680.914 417.141 681.221 415.596 681.817 414.154C682.413 412.713 683.286 411.403 684.388 410.3C685.489 409.197 686.796 408.322 688.235 407.725C689.674 407.128 691.216 406.82 692.773 406.82Z" fill="#444444"/>
<path d="M778.827 408.02H769.061L764.414 370.282L778.829 370.283L778.827 408.02Z" fill="#D8D8D8"/>
<path d="M762.082 406.82H780.917V418.701H750.223C750.223 417.141 750.529 415.596 751.125 414.154C751.721 412.713 752.595 411.403 753.696 410.3C754.797 409.197 756.105 408.322 757.544 407.725C758.982 407.128 760.525 406.82 762.082 406.82Z" fill="#444444"/>
<path d="M709.683 384.648C709.577 384.648 709.471 384.643 709.364 384.634L695.541 383.526C694.993 383.482 694.459 383.325 693.974 383.064C693.49 382.804 693.064 382.446 692.725 382.012C692.385 381.578 692.139 381.079 692.001 380.546C691.864 380.012 691.838 379.456 691.926 378.912L712.884 249.054L714.288 230.738C714.35 229.881 714.687 229.068 715.25 228.421C715.812 227.773 716.569 227.326 717.407 227.146L738.487 222.527C739.262 222.353 740.071 222.417 740.809 222.71C741.547 223.004 742.18 223.513 742.626 224.171L747.766 231.697C749.784 234.623 751.978 237.423 754.334 240.084C757.981 244.245 764.182 253.483 764.738 268.602C764.887 273.569 765.402 278.518 766.278 283.409L783.249 374.993C783.335 375.53 783.31 376.079 783.177 376.606C783.043 377.133 782.804 377.627 782.472 378.058C782.141 378.489 781.725 378.847 781.251 379.111C780.776 379.375 780.253 379.54 779.713 379.594L766.61 380.588C765.672 380.681 764.732 380.436 763.958 379.898C763.185 379.36 762.627 378.564 762.386 377.651L739.143 291.063C739.097 290.893 738.997 290.743 738.858 290.636C738.718 290.529 738.548 290.472 738.372 290.472C738.197 290.472 738.027 290.53 737.888 290.638C737.749 290.745 737.649 290.895 737.604 291.065L713.53 381.684C713.304 382.533 712.804 383.284 712.109 383.82C711.413 384.355 710.56 384.646 709.683 384.648Z" fill="#444444"/>
<path d="M746.445 163.676C757.251 163.676 766.011 154.9 766.011 144.075C766.011 133.25 757.251 124.474 746.445 124.474C735.639 124.474 726.879 133.25 726.879 144.075C726.879 154.9 735.639 163.676 746.445 163.676Z" fill="#D8D8D8"/>
<path d="M713.287 233.684L712.882 205.694C711.392 187.791 719.306 178.392 726.208 173.663C727.988 172.46 729.993 171.631 732.102 171.226C734.211 170.822 736.381 170.851 738.478 171.311L753.877 174.645C756.021 175.113 758.048 176.012 759.836 177.287C761.623 178.563 763.134 180.188 764.277 182.065C765.37 183.835 766.087 185.813 766.385 187.873C766.683 189.933 766.554 192.033 766.007 194.042C764.937 197.801 762.565 201.055 759.316 203.221C746.085 212.577 745.153 228.294 745.145 228.453L745.128 228.778L713.287 233.684Z" fill="#D8D8D8"/>
<path d="M670.551 217.318C669.753 218.272 668.763 219.046 667.645 219.588C666.527 220.131 665.307 220.43 664.065 220.466C662.824 220.502 661.588 220.274 660.441 219.797C659.294 219.32 658.261 218.605 657.409 217.699C649.693 209.592 662.307 197.418 670.052 205.543C670.326 205.823 670.579 206.122 670.811 206.437L709.868 205.464L714.53 196.923L728.857 202.496C726.107 206.769 722.948 223.54 715.754 222.724C714.811 222.749 671.515 217.387 670.551 217.318Z" fill="#D8D8D8"/>
<path d="M722.79 210.855L711.872 202.828C711.107 202.264 710.596 201.419 710.452 200.478C710.308 199.537 710.542 198.577 711.103 197.808L725.007 178.829C725.812 177.73 726.825 176.801 727.988 176.094C729.151 175.387 730.441 174.917 731.786 174.71C733.13 174.503 734.502 174.564 735.823 174.888C737.144 175.213 738.389 175.795 739.485 176.601C740.582 177.407 741.509 178.422 742.214 179.587C742.919 180.752 743.388 182.045 743.595 183.392C743.801 184.739 743.74 186.113 743.416 187.437C743.092 188.76 742.511 190.007 741.706 191.105L727.801 210.085C727.238 210.852 726.394 211.363 725.455 211.508C724.516 211.652 723.557 211.418 722.79 210.855Z" fill="#444444"/>
<path d="M741.688 139.176C738.923 140.053 736.05 140.549 733.151 140.649C730.254 140.616 727.243 139.694 725.287 137.553C722.508 134.513 722.545 129.56 724.695 126.045C726.846 122.53 730.706 120.341 734.698 119.339C738.689 118.336 742.859 118.383 746.973 118.439C751.86 114.87 758.984 115.413 763.998 118.799C769.012 122.186 772.076 127.926 773.376 133.842C774.677 139.758 774.393 145.9 773.9 151.937C773.63 155.246 773.906 159.541 777.062 160.556C779.053 161.196 781.204 160.021 782.631 158.49C784.058 156.959 785.055 155.056 786.547 153.588C789.725 150.458 794.825 149.824 799.024 151.319C803.223 152.814 806.573 156.143 808.934 159.929C812.156 165.094 813.73 171.12 813.446 177.204C813.162 183.288 811.034 189.14 807.345 193.981C803.656 198.822 798.582 202.422 792.799 204.301C787.016 206.179 780.799 206.248 774.976 204.496C764.202 201.256 756.068 192.147 750.834 182.172C744.123 169.317 741.347 154.765 742.853 140.337L741.688 139.176Z" fill="#444444"/>
</svg>
