<svg width="611" height="514" viewBox="0 0 611 514" fill="none" xmlns="http://www.w3.org/2000/svg">
<path d="M294.718 17.945C291.234 17.945 288.409 15.1218 288.409 11.6392C288.409 8.15667 291.234 5.3335 294.718 5.3335C298.203 5.3335 301.027 8.15667 301.027 11.6392C301.027 15.1218 298.203 17.945 294.718 17.945Z" fill="#E6E6E6" fill-opacity="0.3"/>
<path d="M523.058 305.612C519.574 305.612 516.749 302.789 516.749 299.306C516.749 295.824 519.574 293 523.058 293C526.542 293 529.367 295.824 529.367 299.306C529.367 302.789 526.542 305.612 523.058 305.612Z" fill="#E6E6E6" fill-opacity="0.3"/>
<path d="M262.777 17.9445C259.292 17.9445 256.468 15.1213 256.468 11.6387C256.468 8.15618 259.292 5.33301 262.777 5.33301C266.261 5.33301 269.086 8.15618 269.086 11.6387C269.086 15.1213 266.261 17.9445 262.777 17.9445Z" fill="#E6E6E6" fill-opacity="0.3"/>
<path d="M491.117 305.611C487.632 305.611 484.808 302.788 484.808 299.306C484.808 295.823 487.632 293 491.117 293C494.601 293 497.426 295.823 497.426 299.306C497.426 302.788 494.601 305.611 491.117 305.611Z" fill="#E6E6E6" fill-opacity="0.3"/>
<path d="M230.843 17.9445C227.359 17.9445 224.534 15.1213 224.534 11.6387C224.534 8.15618 227.359 5.33301 230.843 5.33301C234.328 5.33301 237.152 8.15618 237.152 11.6387C237.152 15.1213 234.328 17.9445 230.843 17.9445Z" fill="#E6E6E6" fill-opacity="0.3"/>
<path d="M459.183 305.611C455.699 305.611 452.874 302.788 452.874 299.306C452.874 295.823 455.699 293 459.183 293C462.667 293 465.492 295.823 465.492 299.306C465.492 302.788 462.667 305.611 459.183 305.611Z" fill="#E6E6E6" fill-opacity="0.3"/>
<path d="M198.906 17.9445C195.421 17.9445 192.597 15.1213 192.597 11.6387C192.597 8.15618 195.421 5.33301 198.906 5.33301C202.39 5.33301 205.215 8.15618 205.215 11.6387C205.215 15.1213 202.39 17.9445 198.906 17.9445Z" fill="#E6E6E6" fill-opacity="0.3"/>
<path d="M427.246 305.611C423.761 305.611 420.936 302.788 420.936 299.306C420.936 295.823 423.761 293 427.246 293C430.73 293 433.555 295.823 433.555 299.306C433.555 302.788 430.73 305.611 427.246 305.611Z" fill="#E6E6E6" fill-opacity="0.3"/>
<path d="M166.968 17.9445C163.484 17.9445 160.659 15.1213 160.659 11.6387C160.659 8.15618 163.484 5.33301 166.968 5.33301C170.453 5.33301 173.277 8.15618 173.277 11.6387C173.277 15.1213 170.453 17.9445 166.968 17.9445Z" fill="#E6E6E6" fill-opacity="0.3"/>
<path d="M395.308 305.611C391.824 305.611 388.999 302.788 388.999 299.306C388.999 295.823 391.824 293 395.308 293C398.793 293 401.617 295.823 401.617 299.306C401.617 302.788 398.793 305.611 395.308 305.611Z" fill="#E6E6E6" fill-opacity="0.3"/>
<path d="M294.718 50.2648C291.234 50.2648 288.409 47.4416 288.409 43.9591C288.409 40.4765 291.234 37.6533 294.718 37.6533C298.203 37.6533 301.027 40.4765 301.027 43.9591C301.027 47.4416 298.203 50.2648 294.718 50.2648Z" fill="#E6E6E6" fill-opacity="0.3"/>
<path d="M523.058 337.932C519.574 337.932 516.749 335.109 516.749 331.626C516.749 328.143 519.574 325.32 523.058 325.32C526.542 325.32 529.367 328.143 529.367 331.626C529.367 335.109 526.542 337.932 523.058 337.932Z" fill="#E6E6E6" fill-opacity="0.3"/>
<path d="M262.777 50.2648C259.292 50.2648 256.468 47.4416 256.468 43.9591C256.468 40.4765 259.292 37.6533 262.777 37.6533C266.261 37.6533 269.086 40.4765 269.086 43.9591C269.086 47.4416 266.261 50.2648 262.777 50.2648Z" fill="#E6E6E6" fill-opacity="0.3"/>
<path d="M491.117 337.932C487.632 337.932 484.808 335.109 484.808 331.626C484.808 328.143 487.632 325.32 491.117 325.32C494.601 325.32 497.426 328.143 497.426 331.626C497.426 335.109 494.601 337.932 491.117 337.932Z" fill="#E6E6E6" fill-opacity="0.3"/>
<path d="M230.843 50.2648C227.359 50.2648 224.534 47.4416 224.534 43.9591C224.534 40.4765 227.359 37.6533 230.843 37.6533C234.328 37.6533 237.152 40.4765 237.152 43.9591C237.152 47.4416 234.328 50.2648 230.843 50.2648Z" fill="#E6E6E6" fill-opacity="0.3"/>
<path d="M459.183 337.932C455.699 337.932 452.874 335.109 452.874 331.626C452.874 328.143 455.699 325.32 459.183 325.32C462.667 325.32 465.492 328.143 465.492 331.626C465.492 335.109 462.667 337.932 459.183 337.932Z" fill="#E6E6E6" fill-opacity="0.3"/>
<path d="M198.906 50.2648C195.421 50.2648 192.597 47.4416 192.597 43.9591C192.597 40.4765 195.421 37.6533 198.906 37.6533C202.39 37.6533 205.215 40.4765 205.215 43.9591C205.215 47.4416 202.39 50.2648 198.906 50.2648Z" fill="#3384FE"/>
<path d="M427.246 337.932C423.761 337.932 420.936 335.109 420.936 331.626C420.936 328.143 423.761 325.32 427.246 325.32C430.73 325.32 433.555 328.143 433.555 331.626C433.555 335.109 430.73 337.932 427.246 337.932Z" fill="#3384FE"/>
<path d="M166.968 50.2648C163.484 50.2648 160.659 47.4416 160.659 43.9591C160.659 40.4765 163.484 37.6533 166.968 37.6533C170.453 37.6533 173.277 40.4765 173.277 43.9591C173.277 47.4416 170.453 50.2648 166.968 50.2648Z" fill="#E6E6E6" fill-opacity="0.3"/>
<path d="M395.308 337.932C391.824 337.932 388.999 335.109 388.999 331.626C388.999 328.143 391.824 325.32 395.308 325.32C398.793 325.32 401.617 328.143 401.617 331.626C401.617 335.109 398.793 337.932 395.308 337.932Z" fill="#E6E6E6" fill-opacity="0.3"/>
<path d="M103.093 50.2648C99.6088 50.2648 96.7842 47.4416 96.7842 43.9591C96.7842 40.4765 99.6088 37.6533 103.093 37.6533C106.578 37.6533 109.402 40.4765 109.402 43.9591C109.402 47.4416 106.578 50.2648 103.093 50.2648Z" fill="#E6E6E6" fill-opacity="0.3"/>
<path d="M294.718 82.5851C291.234 82.5851 288.409 79.7619 288.409 76.2794C288.409 72.7968 291.234 69.9736 294.718 69.9736C298.203 69.9736 301.027 72.7968 301.027 76.2794C301.027 79.7619 298.203 82.5851 294.718 82.5851Z" fill="#E6E6E6" fill-opacity="0.3"/>
<path d="M523.058 370.252C519.574 370.252 516.749 367.429 516.749 363.946C516.749 360.464 519.574 357.641 523.058 357.641C526.542 357.641 529.367 360.464 529.367 363.946C529.367 367.429 526.542 370.252 523.058 370.252Z" fill="#E6E6E6" fill-opacity="0.3"/>
<path d="M262.777 82.5851C259.292 82.5851 256.468 79.7619 256.468 76.2794C256.468 72.7968 259.292 69.9736 262.777 69.9736C266.261 69.9736 269.086 72.7968 269.086 76.2794C269.086 79.7619 266.261 82.5851 262.777 82.5851Z" fill="#E6E6E6" fill-opacity="0.3"/>
<path d="M491.117 370.252C487.632 370.252 484.808 367.429 484.808 363.946C484.808 360.464 487.632 357.641 491.117 357.641C494.601 357.641 497.426 360.464 497.426 363.946C497.426 367.429 494.601 370.252 491.117 370.252Z" fill="#E6E6E6" fill-opacity="0.3"/>
<path d="M230.843 82.5851C227.359 82.5851 224.534 79.7619 224.534 76.2794C224.534 72.7968 227.359 69.9736 230.843 69.9736C234.328 69.9736 237.152 72.7968 237.152 76.2794C237.152 79.7619 234.328 82.5851 230.843 82.5851Z" fill="#E6E6E6" fill-opacity="0.3"/>
<path d="M459.183 370.252C455.699 370.252 452.874 367.429 452.874 363.946C452.874 360.464 455.699 357.641 459.183 357.641C462.667 357.641 465.492 360.464 465.492 363.946C465.492 367.429 462.667 370.252 459.183 370.252Z" fill="#E6E6E6" fill-opacity="0.3"/>
<path d="M198.906 82.5851C195.421 82.5851 192.597 79.7619 192.597 76.2794C192.597 72.7968 195.421 69.9736 198.906 69.9736C202.39 69.9736 205.215 72.7968 205.215 76.2794C205.215 79.7619 202.39 82.5851 198.906 82.5851Z" fill="#E6E6E6" fill-opacity="0.3"/>
<path d="M427.246 370.252C423.761 370.252 420.936 367.429 420.936 363.946C420.936 360.464 423.761 357.641 427.246 357.641C430.73 357.641 433.555 360.464 433.555 363.946C433.555 367.429 430.73 370.252 427.246 370.252Z" fill="#E6E6E6" fill-opacity="0.3"/>
<path d="M166.968 82.5851C163.484 82.5851 160.659 79.7619 160.659 76.2794C160.659 72.7968 163.484 69.9736 166.968 69.9736C170.453 69.9736 173.277 72.7968 173.277 76.2794C173.277 79.7619 170.453 82.5851 166.968 82.5851Z" fill="#E6E6E6" fill-opacity="0.3"/>
<path d="M395.308 370.252C391.824 370.252 388.999 367.429 388.999 363.946C388.999 360.464 391.824 357.641 395.308 357.641C398.793 357.641 401.617 360.464 401.617 363.946C401.617 367.429 398.793 370.252 395.308 370.252Z" fill="#E6E6E6" fill-opacity="0.3"/>
<path d="M294.718 114.905C291.234 114.905 288.409 112.082 288.409 108.599C288.409 105.117 291.234 102.293 294.718 102.293C298.203 102.293 301.027 105.117 301.027 108.599C301.027 112.082 298.203 114.905 294.718 114.905Z" fill="#E6E6E6" fill-opacity="0.3"/>
<path d="M262.777 114.905C259.292 114.905 256.468 112.082 256.468 108.599C256.468 105.117 259.292 102.293 262.777 102.293C266.261 102.293 269.086 105.117 269.086 108.599C269.086 112.082 266.261 114.905 262.777 114.905Z" fill="#E6E6E6" fill-opacity="0.3"/>
<path d="M230.843 114.905C227.359 114.905 224.534 112.082 224.534 108.599C224.534 105.117 227.359 102.293 230.843 102.293C234.328 102.293 237.152 105.117 237.152 108.599C237.152 112.082 234.328 114.905 230.843 114.905Z" fill="#E6E6E6" fill-opacity="0.3"/>
<path d="M198.906 114.905C195.421 114.905 192.597 112.082 192.597 108.599C192.597 105.117 195.421 102.293 198.906 102.293C202.39 102.293 205.215 105.117 205.215 108.599C205.215 112.082 202.39 114.905 198.906 114.905Z" fill="#E6E6E6" fill-opacity="0.3"/>
<path d="M166.968 114.905C163.484 114.905 160.659 112.082 160.659 108.599C160.659 105.117 163.484 102.293 166.968 102.293C170.453 102.293 173.277 105.117 173.277 108.599C173.277 112.082 170.453 114.905 166.968 114.905Z" fill="#E6E6E6" fill-opacity="0.3"/>
<path d="M135.027 114.905C131.542 114.905 128.718 112.082 128.718 108.599C128.718 105.117 131.542 102.293 135.027 102.293C138.511 102.293 141.336 105.117 141.336 108.599C141.336 112.082 138.511 114.905 135.027 114.905Z" fill="#E6E6E6" fill-opacity="0.3"/>
<path d="M103.093 114.905C99.6088 114.905 96.7842 112.082 96.7842 108.599C96.7842 105.117 99.6088 102.293 103.093 102.293C106.578 102.293 109.402 105.117 109.402 108.599C109.402 112.082 106.578 114.905 103.093 114.905Z" fill="#E6E6E6" fill-opacity="0.3"/>
<path d="M71.1596 114.905C67.6752 114.905 64.8505 112.082 64.8505 108.599C64.8505 105.117 67.6752 102.293 71.1596 102.293C74.644 102.293 77.4688 105.117 77.4688 108.599C77.4688 112.082 74.644 114.905 71.1596 114.905Z" fill="#E6E6E6" fill-opacity="0.3"/>
<path d="M39.2182 114.905C35.7338 114.905 32.9091 112.082 32.9091 108.599C32.9091 105.117 35.7338 102.293 39.2182 102.293C42.7026 102.293 45.5273 105.117 45.5273 108.599C45.5273 112.082 42.7026 114.905 39.2182 114.905Z" fill="#E6E6E6" fill-opacity="0.3"/>
<path d="M7.28462 114.905C3.80019 114.905 0.975492 112.082 0.975492 108.599C0.975492 105.117 3.80019 102.293 7.28462 102.293C10.7691 102.293 13.5938 105.117 13.5938 108.599C13.5938 112.082 10.7691 114.905 7.28462 114.905Z" fill="#E6E6E6" fill-opacity="0.3"/>
<path d="M166.968 147.225C163.484 147.225 160.659 144.402 160.659 140.92C160.659 137.437 163.484 134.614 166.968 134.614C170.453 134.614 173.277 137.437 173.277 140.92C173.277 144.402 170.453 147.225 166.968 147.225Z" fill="#E6E6E6" fill-opacity="0.3"/>
<path d="M135.027 147.225C131.542 147.225 128.718 144.402 128.718 140.92C128.718 137.437 131.542 134.614 135.027 134.614C138.511 134.614 141.336 137.437 141.336 140.92C141.336 144.402 138.511 147.225 135.027 147.225Z" fill="#3384FE"/>
<path d="M103.093 147.225C99.6088 147.225 96.7842 144.402 96.7842 140.92C96.7842 137.437 99.6088 134.614 103.093 134.614C106.578 134.614 109.402 137.437 109.402 140.92C109.402 144.402 106.578 147.225 103.093 147.225Z" fill="#E6E6E6" fill-opacity="0.3"/>
<path d="M71.1596 147.225C67.6752 147.225 64.8505 144.402 64.8505 140.92C64.8505 137.437 67.6752 134.614 71.1596 134.614C74.644 134.614 77.4688 137.437 77.4688 140.92C77.4688 144.402 74.644 147.225 71.1596 147.225Z" fill="#E6E6E6" fill-opacity="0.3"/>
<path d="M39.2182 147.225C35.7338 147.225 32.9091 144.402 32.9091 140.92C32.9091 137.437 35.7338 134.614 39.2182 134.614C42.7026 134.614 45.5273 137.437 45.5273 140.92C45.5273 144.402 42.7026 147.225 39.2182 147.225Z" fill="#E6E6E6" fill-opacity="0.3"/>
<path d="M7.28462 147.225C3.80019 147.225 0.975492 144.402 0.975492 140.92C0.975492 137.437 3.80019 134.614 7.28462 134.614C10.7691 134.614 13.5938 137.437 13.5938 140.92C13.5938 144.402 10.7691 147.225 7.28462 147.225Z" fill="#E6E6E6" fill-opacity="0.3"/>
<path d="M166.968 179.546C163.484 179.546 160.659 176.722 160.659 173.24C160.659 169.757 163.484 166.934 166.968 166.934C170.453 166.934 173.277 169.757 173.277 173.24C173.277 176.722 170.453 179.546 166.968 179.546Z" fill="#E6E6E6" fill-opacity="0.3"/>
<path d="M135.027 179.546C131.542 179.546 128.718 176.722 128.718 173.24C128.718 169.757 131.542 166.934 135.027 166.934C138.511 166.934 141.336 169.757 141.336 173.24C141.336 176.722 138.511 179.546 135.027 179.546Z" fill="#E6E6E6" fill-opacity="0.3"/>
<path d="M103.093 179.546C99.6088 179.546 96.7842 176.722 96.7842 173.24C96.7842 169.757 99.6088 166.934 103.093 166.934C106.578 166.934 109.402 169.757 109.402 173.24C109.402 176.722 106.578 179.546 103.093 179.546Z" fill="#E6E6E6" fill-opacity="0.3"/>
<path d="M71.1596 179.546C67.6752 179.546 64.8505 176.722 64.8505 173.24C64.8505 169.757 67.6752 166.934 71.1596 166.934C74.644 166.934 77.4688 169.757 77.4688 173.24C77.4688 176.722 74.644 179.546 71.1596 179.546Z" fill="#E6E6E6" fill-opacity="0.3"/>
<path d="M39.2182 179.546C35.7338 179.546 32.9091 176.722 32.9091 173.24C32.9091 169.757 35.7338 166.934 39.2182 166.934C42.7026 166.934 45.5273 169.757 45.5273 173.24C45.5273 176.722 42.7026 179.546 39.2182 179.546Z" fill="#3384FE"/>
<path d="M7.28462 179.546C3.80019 179.546 0.975492 176.722 0.975492 173.24C0.975492 169.757 3.80019 166.934 7.28462 166.934C10.7691 166.934 13.5938 169.757 13.5938 173.24C13.5938 176.722 10.7691 179.546 7.28462 179.546Z" fill="#E6E6E6" fill-opacity="0.3"/>
<path d="M166.968 211.865C163.484 211.865 160.659 209.042 160.659 205.56C160.659 202.077 163.484 199.254 166.968 199.254C170.453 199.254 173.277 202.077 173.277 205.56C173.277 209.042 170.453 211.865 166.968 211.865Z" fill="#E6E6E6" fill-opacity="0.3"/>
<path d="M135.027 211.865C131.542 211.865 128.718 209.042 128.718 205.56C128.718 202.077 131.542 199.254 135.027 199.254C138.511 199.254 141.336 202.077 141.336 205.56C141.336 209.042 138.511 211.865 135.027 211.865Z" fill="#E6E6E6" fill-opacity="0.3"/>
<path d="M363.079 464.057L294.65 418.42V65.281C294.65 64.6552 294.401 64.055 293.959 63.6125C293.516 63.17 292.916 62.9214 292.29 62.9214H288.751C288.125 62.9214 287.525 63.17 287.082 63.6125C286.64 64.055 286.391 64.6552 286.391 65.281V416.856L215.617 464.057L224.667 463.94L286.391 422.544V464.057H294.65V424.116L354.029 463.94L363.079 464.057Z" fill="#444444"/>
<path d="M170.766 99.4956C170.14 99.4963 169.541 99.7452 169.098 100.188C168.656 100.63 168.407 101.23 168.406 101.855V314.222C168.407 314.847 168.656 315.447 169.098 315.889C169.541 316.331 170.14 316.58 170.766 316.581H410.267C410.893 316.58 411.493 316.331 411.935 315.889C412.377 315.447 412.626 314.847 412.627 314.222V101.855C412.626 101.23 412.377 100.63 411.935 100.188C411.493 99.7452 410.893 99.4963 410.267 99.4956H170.766Z" fill="#F5F5F5"/>
<path d="M277.152 97.1353C277.397 97.8249 277.85 98.4218 278.447 98.8443C279.045 99.2667 279.758 99.494 280.49 99.4949H301.727C302.459 99.494 303.172 99.2667 303.77 98.8443C304.367 98.4218 304.82 97.8249 305.065 97.1353H277.152Z" fill="#3F3D56"/>
<path d="M228.777 318.94H353.434C353.189 318.25 352.737 317.653 352.139 317.231C351.542 316.808 350.828 316.581 350.096 316.58H232.115C231.383 316.581 230.67 316.808 230.072 317.231C229.475 317.653 229.022 318.25 228.777 318.94Z" fill="#3F3D56"/>
<path opacity="0.3" d="M233.449 207.602C251.586 207.602 266.289 192.899 266.289 174.762C266.289 156.625 251.586 141.922 233.449 141.922C215.312 141.922 200.609 156.625 200.609 174.762C200.609 192.899 215.312 207.602 233.449 207.602Z" fill="#3384FE"/>
<path opacity="0.3" d="M309.894 243.845C328.031 243.845 342.734 229.142 342.734 211.005C342.734 192.868 328.031 178.166 309.894 178.166C291.758 178.166 277.055 192.868 277.055 211.005C277.055 229.142 291.758 243.845 309.894 243.845Z" fill="#3384FE"/>
<path opacity="0.3" d="M266.555 259.914C292.672 259.914 313.844 238.741 313.844 212.624C313.844 186.507 292.672 165.335 266.555 165.335C240.438 165.335 219.266 186.507 219.266 212.624C219.266 238.741 240.438 259.914 266.555 259.914Z" fill="#3384FE"/>
<path opacity="0.3" d="M252.227 277.092C278.344 277.092 299.516 255.92 299.516 229.802C299.516 203.685 278.344 182.513 252.227 182.513C226.11 182.513 204.938 203.685 204.938 229.802C204.938 255.92 226.11 277.092 252.227 277.092Z" fill="#3384FE"/>
<path opacity="0.3" d="M339.024 290.931C365.141 290.931 386.313 269.759 386.313 243.642C386.313 217.525 365.141 196.353 339.024 196.353C312.906 196.353 291.734 217.525 291.734 243.642C291.734 269.759 312.906 290.931 339.024 290.931Z" fill="#3384FE"/>
<path opacity="0.3" d="M324.098 222.728C350.215 222.728 371.387 201.555 371.387 175.438C371.387 149.321 350.215 128.149 324.098 128.149C297.981 128.149 276.809 149.321 276.809 175.438C276.809 201.555 297.981 222.728 324.098 222.728Z" fill="#3384FE"/>
<path d="M504.778 146.627C503.91 149.412 503.141 152.068 502.493 154.351L502.897 154.496C503.4 152.38 504.039 149.64 504.778 146.627ZM528.87 78.8169L528.992 78.8854L528.878 78.7788L528.87 78.8169Z" fill="url(#paint0_linear)"/>
<path d="M576.137 240.511L571.28 244.315L577.752 254.11L586.577 257.345L587.309 250.868L576.137 240.511Z" fill="#E6E6E6"/>
<path d="M413.859 148.776H409.017C406.199 144.971 408.354 130.511 408.354 130.511L412.565 131.272L413.859 148.776Z" fill="#E6E6E6"/>
<path d="M500.406 173.191L499.599 215.749L494.269 235.818C494.269 235.818 491.649 255.24 488.436 253.619C485.223 251.998 471.516 256.61 471.516 256.61L470.869 249.41L475.484 207.096L479.047 185.977C479.047 185.977 481.073 169.386 482.611 159.675C484.149 149.964 497.018 157.658 497.018 157.658L500.406 173.191Z" fill="#444444"/>
<path opacity="0.1" d="M536.356 37.4121C539.265 16.7799 498.222 64.6044 498.222 64.6044C498.222 64.6044 502.745 67.504 508.601 72.0703C509.142 72.1084 509.682 72.1084 510.238 72.1084C522.795 72.1084 531.453 64.2543 536.432 53.5996C534.43 48.8583 535.458 43.7288 536.356 37.4121Z" fill="black"/>
<path d="M550.254 69.6196L550.094 70.0077L548.959 72.7931L547.68 75.9059C546.18 76.8612 544.782 77.968 543.507 79.2088C539.182 83.0902 532.908 89.3308 529.573 92.687C528.164 94.1026 527.281 95.0007 527.281 95.0007C525.628 93.5318 523.968 88.6231 522.849 84.6503C522.666 84.0187 522.506 83.4098 522.354 82.8466C521.791 80.6929 521.448 79.1403 521.448 79.1403C525.689 77.6258 535.588 67.9529 540.675 62.793C542.736 64.8304 544.982 66.6724 547.383 68.2953C547.673 67.4886 550.254 69.6196 550.254 69.6196Z" fill="#E6E6E6"/>
<path d="M570.978 240.993L560.318 246.176L573.026 270.126C577.801 265.674 577.237 247.957 577.237 247.957L570.978 240.993Z" fill="#D8D8D8"/>
<path opacity="0.1" d="M596.824 107.437C596.824 107.437 606.053 147.498 608.604 172.255C611.155 197.012 601.56 212.789 601.56 212.789L581.039 258.307C573.995 256.496 559.665 241.564 559.665 241.564L580.224 184.638C580.224 184.638 572.602 155.893 567.835 129.416C563.068 102.939 575.701 91.0588 575.701 91.0588C596.832 83.0525 596.824 107.437 596.824 107.437Z" fill="black"/>
<path d="M557.242 248.764L562.908 264.952L569.22 273.605C569.22 273.605 573.949 276.763 575.129 270.857C576.309 264.952 560.319 242.775 560.319 242.775C557.791 241.778 557.242 248.764 557.242 248.764Z" fill="#444444"/>
<path d="M548.655 471.12C553.186 472.573 556.59 500.413 556.59 500.413L528.416 507.369C528.416 507.369 508.656 510.284 499.267 507.369C489.878 504.454 490.198 496.364 503.638 495.07C517.078 493.776 526.634 476.463 526.634 476.463C526.634 476.463 544.125 469.666 548.655 471.12Z" fill="#444444"/>
<path d="M581.717 476.782C581.649 479.012 582.022 481.234 582.814 483.319C585.084 490.143 586.045 497.334 585.646 504.515C585.585 505.372 585.517 506.27 585.441 507.209C584.466 518.374 557.442 511.425 555.645 510.124C553.848 508.822 560.975 476.782 560.975 476.782C560.975 476.782 582.167 472.254 581.717 476.782Z" fill="#444444"/>
<path d="M552.137 71.1337C552.13 71.1427 552.124 71.1531 552.121 71.1642C551.55 72.5645 530.328 124.575 534.166 107.565C534.281 107.059 534.357 106.545 534.395 106.028C534.722 101.85 532.75 97.2531 529.575 92.6867C527.551 89.8334 525.302 87.146 522.851 84.65C521.625 83.3791 520.353 82.1386 519.067 80.9361C515.533 77.6256 511.855 74.5966 508.596 72.0699C502.741 67.5036 498.218 64.604 498.218 64.604C498.218 64.604 539.26 16.7795 536.352 37.4116C535.552 43.0662 532.217 48.7056 534.478 53.9416C535.962 57.2591 538.066 60.2632 540.677 62.7927C542.738 64.8301 544.984 66.6721 547.385 68.295C548.413 68.9876 549.342 69.566 550.096 70.0074C551.352 70.7456 552.137 71.1337 552.137 71.1337Z" fill="#D8D8D8"/>
<path d="M411.399 132.81C411.399 132.81 409.785 131.912 407.348 130.839C400.183 127.719 385.875 123.152 384.071 135.725C381.642 152.59 397.731 150.649 397.731 150.649C400.912 149.443 404.171 148.454 407.486 147.689C409.115 147.249 410.817 147.143 412.488 147.377L411.399 132.81Z" fill="#D8D8D8"/>
<path d="M484.999 152.079C476.25 149.629 464.958 152.079 464.958 152.079L413.94 153.206C404.833 141.189 411.145 129.902 411.145 129.902C411.145 129.902 436.167 128.921 456.444 125.892C476.722 122.863 490.078 107.809 490.078 107.809L484.999 152.079Z" fill="#444444"/>
<path d="M539.809 43.78C539.795 36.3489 536.831 29.2269 531.567 23.9787C526.303 18.7304 519.17 15.7851 511.735 15.7896C504.3 15.7941 497.171 18.7481 491.913 24.0027C486.656 29.2573 483.7 36.3828 483.695 43.8139C483.691 51.2451 486.638 58.3742 491.889 63.6353C497.14 68.8963 504.266 71.859 511.701 71.8726C519.136 71.8861 526.272 68.9495 531.543 63.7076C536.813 58.4658 539.786 51.3475 539.808 43.9164C539.809 43.8709 539.809 43.8255 539.809 43.78Z" fill="#D8D8D8"/>
<path d="M553.643 164.294L552.12 71.1338L535.847 79.6499L522.347 82.8464L518.928 80.8524L518.684 80.7078L518.128 80.3882C518.128 80.3882 517.945 80.7839 517.595 81.5069C514.641 87.7551 500.264 118.311 500.569 120.929C500.889 123.837 490.312 160.488 490.312 160.488L495.414 195.2C495.414 195.2 485.736 219.311 488.294 228.215C490.853 237.119 560.633 230.962 560.633 230.962L553.643 164.294Z" fill="#E6E6E6"/>
<path d="M526.391 85.7235L520.969 92.6796L520.093 94.7116C517.031 101.877 515.273 109.532 514.9 117.315V126.341L513.766 198.679L507.529 209.798L506.395 196.038L508.9 118.601L512.304 101.097L514.162 90.0083C515.159 88.0716 516.027 86.0707 516.758 84.0188C518.616 79.247 523.398 80.5408 523.398 80.5408L526.391 85.7235Z" fill="#444444"/>
<path d="M514.839 82.664C511.664 84.6047 506.501 87.1314 500.775 87.4206C500.775 87.4206 488.371 93.9809 486.071 116.432C483.772 138.883 474.056 206.365 474.056 206.365C474.056 206.365 465.405 251.869 471.497 256.595L478.297 200.893C478.297 200.893 490.199 168.724 491.059 162.772C491.82 157.354 501.285 127.726 502.945 122.536C503.113 122.048 503.197 121.774 503.197 121.774L512.662 95.0235L518.129 80.3809C517.085 81.215 515.986 81.9778 514.839 82.664Z" fill="#444444"/>
<path d="M582.813 388.432C582.813 388.432 573.264 322.555 575.853 313.666C578.442 304.777 574.071 239.083 574.071 239.083L572.632 226.761L571.825 219.813L571.482 216.906L569.814 217.416C553.72 222.101 537.19 225.131 520.479 226.457C516.776 226.709 513.055 226.411 509.438 225.574C502.829 224.067 490.051 222.218 487.82 220.635C487.82 220.635 487.059 222.682 486.107 226.031C483.914 233.771 480.609 248.566 483.153 261.169L487.044 286.656C487.044 286.656 488.574 312.631 493.6 328.171L498.047 349.367L503.88 392.572C506.759 404.084 508.843 415.781 510.116 427.58C512.24 447.17 524.37 479.666 524.37 479.666C524.37 479.666 550.154 483.228 550.915 474.491L542.006 406.354L533.752 308.772C533.752 308.772 542.699 369.656 547.839 382.769C547.839 382.769 554.966 457.512 557.395 469.027C559.824 480.542 561.438 483.586 561.438 483.586C561.438 483.586 576.5 489.096 583.3 478.898C583.3 478.898 585.242 448.646 586.696 437.801C588.158 426.941 582.813 388.432 582.813 388.432Z" fill="#444444"/>
<path d="M607.863 254.425C602.038 261.221 576.643 262.439 576.643 262.439L556.853 231.266L551.515 222.864C551.515 222.864 545.568 218.739 534.39 200.162C523.212 181.585 523.592 167.277 524.209 156.592C524.826 145.906 531.824 115.198 531.824 115.198C532.509 112.096 533.366 109.035 534.39 106.027C536.819 98.3711 540.497 87.7316 543.505 79.2079C544.045 77.6705 544.563 76.2017 545.058 74.8318C545.972 72.229 541.327 62.3125 541.327 62.3125C542.964 65.5926 553.274 70.9885 556.861 73.2488C566.531 79.3372 580.032 81.8335 580.032 81.8335C601.772 84.9918 597.759 107.443 597.759 107.443C597.759 107.443 598.002 194.713 596.662 205.154C595.322 215.596 607.863 254.425 607.863 254.425Z" fill="#444444"/>
<path d="M597.793 107.436C597.793 107.436 607.022 147.498 609.572 172.255C612.123 197.012 602.529 212.788 602.529 212.788L581.97 258.307C574.926 256.496 560.595 241.564 560.595 241.564L581.155 184.637C581.155 184.637 573.525 155.892 568.773 129.415C564.022 102.938 576.662 91.0583 576.662 91.0583C597.793 83.052 597.793 107.436 597.793 107.436Z" fill="#444444"/>
<path d="M537.712 58.9597C537.712 58.9597 567.026 18.8092 530.111 10.1281C530.111 10.1281 519.624 -5.59394 506.739 2.13882C500.415 5.84755 493.2 7.76535 485.868 7.68646C479.625 7.68646 473.653 10.1281 474.739 19.8944C476.911 39.427 488.854 36.1716 488.854 36.1716C488.854 36.1716 521.242 21.6682 522.328 37.9454C523.414 54.2227 537.712 58.9597 537.712 58.9597Z" fill="#444444"/>
<defs>
<linearGradient id="paint0_linear" x1="515.743" y1="154.496" x2="515.743" y2="78.7788" gradientUnits="userSpaceOnUse">
<stop stop-color="#808080" stop-opacity="0.25"/>
<stop offset="0.54" stop-color="#808080" stop-opacity="0.12"/>
<stop offset="1" stop-color="#808080" stop-opacity="0.1"/>
</linearGradient>
</defs>
</svg>
