<svg width="399" height="287" viewBox="0 0 399 287" fill="none" xmlns="http://www.w3.org/2000/svg">
<path opacity="0.3" d="M298.529 285.45H377.349C377.349 285.45 378.947 262.248 369.494 261.984C360.041 261.72 361.106 272.267 349.256 257.765C337.406 243.264 323.028 244.055 321.164 252.624C319.3 261.194 324.758 268.048 314.773 265.939C304.787 263.83 290.407 269.367 298.529 285.45Z" fill="#AFC2DF"/>
<path d="M366.044 285.45L366.312 285.44C365.688 270.219 362.445 260.44 359.833 254.915C356.997 248.917 354.264 246.489 354.237 246.465L354.059 246.662C354.086 246.685 356.787 249.089 359.6 255.047C362.197 260.546 365.423 270.286 366.044 285.45Z" fill="white"/>
<path d="M337.109 285.451L337.352 285.379C335.473 279.092 332.087 273.376 327.496 268.743L327.327 268.932C331.883 273.533 335.244 279.209 337.109 285.451Z" fill="white"/>
<path d="M391.157 285.451L391.438 285.416C390.521 279.858 391.492 274.181 394.222 269.13C395.342 267.011 396.824 265.063 398.614 263.358L398.417 263.173C396.603 264.899 395.1 266.871 393.965 269.016C391.21 274.114 390.231 279.843 391.157 285.451Z" fill="#AFC2DF"/>
<path opacity="0.3" d="M288.057 285.451H385.091L385.113 285.121C385.168 284.302 386.406 266.079 380.157 259.18C379.537 258.451 378.771 257.86 377.91 257.446C377.049 257.031 376.11 256.802 375.155 256.774C371.082 256.657 368.521 258.187 366.456 259.415C362.564 261.729 359.994 263.258 350.645 251.676C340.519 239.128 329.592 236.428 323.311 237.929C319.253 238.899 316.456 241.641 315.637 245.451C314.86 249.059 315.109 252.449 315.307 255.174C315.52 258.088 315.687 260.39 314.493 261.434C313.494 262.304 311.507 262.383 308.233 261.683C301.573 260.259 292.278 261.477 287.614 267.52C285.104 270.77 283.127 275.565 287.96 285.255L288.057 285.451ZM384.428 284.743H288.494C284.893 277.419 284.78 272.345 288.172 267.953C292.451 262.41 301.429 260.951 308.086 262.374C311.643 263.136 313.763 263.01 314.957 261.967C316.417 260.692 316.237 258.234 316.011 255.124C315.816 252.445 315.573 249.111 316.327 245.602C317.086 242.068 319.692 239.523 323.475 238.619C329.556 237.165 340.18 239.83 350.098 252.122C359.828 264.179 362.76 262.437 366.817 260.022C368.907 258.779 371.28 257.37 375.136 257.48C375.995 257.507 376.84 257.715 377.615 258.09C378.39 258.464 379.078 258.997 379.635 259.654C385.25 265.856 384.566 282.129 384.428 284.743Z" fill="#AFC2DF"/>
<path d="M60.4601 286.262H136.691L136.706 285.83L140.346 180.446H56.8061L60.4601 286.262ZM135.836 285.366H61.3153L57.7224 181.342H139.429L135.836 285.366Z" fill="#D1D1D1"/>
<path d="M118.581 200.134H124.408V272.239H118.581V200.134Z" fill="#D1D1D1"/>
<path d="M95.639 200.134H101.466V272.239H95.639V200.134Z" fill="#D1D1D1"/>
<path d="M72.6967 200.134H78.5234V272.239H72.6967V200.134Z" fill="#D1D1D1"/>
<path d="M8.2378 210.52L8.61329 210.286L103.589 150.997L95.3504 138.119L94.9749 138.353L-0.000282288 197.642L8.2378 210.52ZM102.364 150.724L8.51443 209.31L1.22502 197.915L95.0737 139.329L102.364 150.724Z" fill="#D1D1D1"/>
<path d="M31.1772 146.335C33.877 144.588 37.0104 143.669 40.2055 143.688C43.4005 143.707 46.5231 144.664 49.2028 146.444C51.8824 148.224 54.0065 150.752 55.3231 153.73C56.6396 156.707 57.0934 160.009 56.6304 163.242L52.2015 166.105C53.3145 163.462 53.571 160.523 52.9332 157.72C52.2954 154.917 50.797 152.397 48.6573 150.527C46.5176 148.658 43.849 147.539 41.0424 147.333C38.2357 147.128 35.4383 147.846 33.0599 149.384C30.6815 150.922 28.8469 153.198 27.8248 155.88C26.8027 158.561 26.6468 161.507 27.3799 164.285C28.113 167.064 29.6966 169.529 31.8988 171.321C34.101 173.112 36.8062 174.136 39.6182 174.241L35.1893 177.104C32.1348 176.145 29.4135 174.31 27.3482 171.816C25.2829 169.323 23.9604 166.276 23.5376 163.036C23.1148 159.797 23.6095 156.502 24.963 153.542C26.3164 150.581 28.4717 148.08 31.1733 146.335H31.1772Z" fill="#D1D1D1"/>
<path d="M243.285 278.246H251.399L255.261 246.95H243.283L243.285 278.246Z" fill="#D1D1D1"/>
<path d="M267.046 285.779H241.546V275.927H257.33C259.907 275.927 262.378 276.95 264.2 278.772C266.022 280.594 267.046 283.066 267.046 285.642V285.779Z" fill="black"/>
<path d="M246.137 229.751L240.54 235.626L215.218 216.836L223.478 208.166L246.137 229.751Z" fill="#D1D1D1"/>
<path d="M234.775 238.318L245.666 226.89L252.799 233.688L235.204 252.15L235.105 252.055C234.181 251.175 233.44 250.121 232.924 248.955C232.407 247.788 232.126 246.531 232.095 245.255C232.064 243.979 232.285 242.71 232.745 241.52C233.205 240.329 233.895 239.241 234.775 238.318V238.318Z" fill="black"/>
<path d="M302.611 144.013C303.125 143.186 303.451 142.258 303.567 141.292C303.683 140.326 303.585 139.347 303.282 138.423C302.978 137.498 302.476 136.652 301.81 135.943C301.144 135.234 300.331 134.68 299.427 134.319L267.572 53.1321L255.155 60.5668L290.542 138.451C290.036 140.01 290.12 141.699 290.777 143.2C291.434 144.701 292.618 145.908 294.106 146.594C295.594 147.279 297.282 147.395 298.849 146.919C300.417 146.444 301.755 145.409 302.611 144.013Z" fill="#D1D1D1"/>
<path d="M181.701 149.831C182.671 149.762 183.615 149.481 184.465 149.007C185.315 148.533 186.051 147.879 186.621 147.09C187.191 146.302 187.58 145.397 187.763 144.442C187.945 143.486 187.916 142.501 187.677 141.558L234.672 68.092L221.362 62.4094L179.112 136.797C177.552 137.301 176.232 138.361 175.401 139.775C174.571 141.189 174.288 142.858 174.608 144.467C174.927 146.075 175.826 147.51 177.133 148.499C178.441 149.489 180.066 149.964 181.701 149.834V149.831Z" fill="#D1D1D1"/>
<path d="M267.258 135.883L258.94 259.514L239.061 257.76L234.968 166.548L223.859 205.721L199.888 207.475L209.376 130.036L267.258 135.883Z" fill="#444444"/>
<path d="M220.351 199.875L223.861 205.722L248.415 222.677L230.875 232.032C230.875 232.032 196.964 213.323 199.887 207.476L220.351 199.875Z" fill="#444444"/>
<path d="M284.667 85.8629L277.747 66.3639C276.208 62.0253 273.823 58.0351 270.731 54.6242C267.639 51.2134 263.901 48.4495 259.734 46.4927C250.368 43.0422 240.182 42.4846 230.495 44.8921L227.977 45.5172C221.262 47.1448 214.97 50.1834 209.52 54.431C205.256 57.7927 201.42 62.049 201.079 66.6274C201.077 66.6372 201.074 66.6467 201.07 66.6558C199.889 71.8325 199.305 98.7273 199.305 98.7273H209.723L208.075 134.977L208.208 134.715C208.208 134.715 268.296 146.086 268.296 140.239V102.819L269.528 89.2697L284.667 85.8629Z" fill="black"/>
<path d="M228.579 39.8235C219.382 39.8235 211.927 32.3683 211.927 23.1719C211.927 13.9754 219.382 6.52026 228.579 6.52026C237.775 6.52026 245.23 13.9754 245.23 23.1719C245.23 32.3683 237.775 39.8235 228.579 39.8235Z" fill="#D1D1D1"/>
<path d="M226.085 15.7043L213.155 16.2224C211.528 16.2174 209.752 16.16 208.513 15.1082C206.647 13.5209 206.959 10.5259 207.959 8.28852C210.744 2.05886 216.958 -0.172943 223.781 0.0103481C230.604 0.193639 237.753 2.50622 241.428 8.25565C245.102 14.0051 246.094 21.2654 244.711 27.9463C243.111 24.5492 240.648 21.6311 237.568 19.4833C234.487 17.3356 230.898 16.0333 227.157 15.7065L226.085 15.7043Z" fill="black"/>
<path d="M149.307 178.58L196.106 145.781C196.541 145.475 196.837 145.01 196.929 144.486C197.021 143.962 196.902 143.424 196.597 142.988L159.866 90.5782C159.56 90.1434 159.094 89.8476 158.57 89.7555C158.047 89.6634 157.508 89.7825 157.072 90.0868L110.274 122.886C109.839 123.192 109.543 123.658 109.451 124.181C109.359 124.705 109.478 125.244 109.782 125.68L146.513 178.088C146.818 178.523 147.284 178.819 147.808 178.912C148.332 179.004 148.871 178.885 149.307 178.58Z" fill="#3384FE"/>
<path d="M138.783 142.991L166.244 123.746C166.561 123.523 166.832 123.24 167.04 122.913C167.248 122.586 167.39 122.221 167.457 121.839C167.524 121.457 167.516 121.065 167.432 120.687C167.348 120.308 167.19 119.95 166.967 119.632C166.745 119.315 166.462 119.044 166.135 118.836C165.807 118.628 165.442 118.486 165.06 118.419C164.678 118.352 164.287 118.36 163.908 118.445C163.53 118.529 163.172 118.686 162.854 118.909L135.393 138.155C134.752 138.604 134.316 139.29 134.18 140.062C134.044 140.833 134.221 141.627 134.67 142.268C135.12 142.909 135.805 143.346 136.577 143.482C137.348 143.617 138.142 143.441 138.783 142.991Z" fill="white"/>
<path d="M145.085 151.984L172.545 132.738C172.863 132.516 173.134 132.233 173.343 131.906C173.551 131.578 173.693 131.213 173.761 130.831C173.828 130.449 173.82 130.057 173.736 129.679C173.651 129.3 173.494 128.941 173.271 128.623C173.048 128.306 172.765 128.035 172.438 127.827C172.11 127.618 171.745 127.477 171.363 127.41C170.981 127.343 170.589 127.352 170.21 127.436C169.832 127.52 169.473 127.679 169.156 127.902L141.695 147.147C141.054 147.597 140.619 148.283 140.483 149.054C140.348 149.825 140.525 150.618 140.974 151.259C141.423 151.9 142.108 152.336 142.879 152.472C143.65 152.608 144.443 152.433 145.085 151.984Z" fill="white"/>
<path d="M151.454 161.073L178.915 141.827C179.232 141.604 179.503 141.321 179.711 140.994C179.919 140.667 180.061 140.302 180.128 139.92C180.195 139.538 180.187 139.147 180.103 138.768C180.018 138.39 179.861 138.031 179.638 137.714C179.416 137.396 179.133 137.126 178.805 136.917C178.478 136.709 178.113 136.567 177.731 136.5C177.349 136.433 176.958 136.442 176.579 136.526C176.201 136.61 175.843 136.768 175.525 136.99L148.064 156.236C147.423 156.686 146.986 157.372 146.851 158.143C146.715 158.914 146.891 159.708 147.341 160.349C147.79 160.991 148.476 161.427 149.248 161.563C150.019 161.699 150.813 161.522 151.454 161.073V161.073Z" fill="white"/>
<path d="M138.859 125.203L149.496 117.748C149.814 117.526 150.085 117.243 150.293 116.916C150.502 116.589 150.644 116.223 150.711 115.841C150.778 115.459 150.77 115.068 150.686 114.689C150.602 114.31 150.444 113.951 150.221 113.634C149.998 113.316 149.715 113.045 149.388 112.837C149.06 112.629 148.695 112.487 148.313 112.42C147.931 112.353 147.539 112.362 147.161 112.446C146.782 112.531 146.423 112.689 146.106 112.912L135.47 120.366C134.828 120.816 134.392 121.502 134.256 122.273C134.12 123.044 134.297 123.838 134.746 124.479C135.196 125.121 135.882 125.557 136.653 125.693C137.424 125.829 138.218 125.652 138.859 125.203Z" fill="white"/>
</svg>
