
<svg xmlns="http://www.w3.org/2000/svg" viewBox="0 0 4080 134">
    <defs>
        <style>
            .cls-2 {
                fill: #C3D9FD
            }
        </style>
    </defs>
    <path fill="#D1E1FC" d="M0 0h4080v134H0z" />
    <path class="cls-2"
        d="M0 0v6.36L6.36 0H0zM255 6.36L261.36 0h-65.05L62.3 134h65.06L255 6.36zM68.95 0L0 68.95V134L134 0H68.95zM510 6.36L516.36 0h-65.05l-134 134h65.05L510 6.36zM323.95 0L255 68.95 189.95 134H255L389 0h-65.05zM765 6.36L771.36 0H706.3l-134 134h65.06L765 6.36zM578.95 0L510 68.95 444.95 134H510L644 0h-65.05zM1020 6.36l6.36-6.36H961.3l-134 134h65.06L1020 6.36zM833.95 0L765 68.95 699.95 134H765L899 0h-65.05zM1275 6.36l6.36-6.36h-65.05l-134 134h65.05L1275 6.36zM1088.95 0L1020 68.95 954.95 134H1020L1154 0h-65.05zM1530 6.36l6.36-6.36h-65.05l-134 134h65.05L1530 6.36zM1343.95 0L1275 68.95 1209.95 134H1275L1409 0h-65.05zM1785 6.36l6.36-6.36h-65.05l-134 134h65.05L1785 6.36zM1598.95 0L1530 68.95 1464.95 134H1530L1664 0h-65.05zM2040 6.36l6.36-6.36h-65.05l-134 134h65.05L2040 6.36zM1853.95 0L1785 68.95 1719.95 134H1785L1919 0h-65.05zM2295 6.36l6.36-6.36h-65.06l-134 134h65.06L2295 6.36zM2108.95 0L2040 68.95 1974.95 134H2040L2174 0h-65.05zM2550 6.36l6.36-6.36h-65.06l-134 134h65.06L2550 6.36zM2363.95 0L2295 68.95 2229.95 134H2295L2429 0h-65.05zM2805 6.36l6.36-6.36h-65.06l-134 134h65.06L2805 6.36zM2618.95 0L2550 68.95 2484.95 134H2550L2684 0h-65.05zM3060 6.36l6.36-6.36h-65.06l-134 134h65.06L3060 6.36zM2873.95 0L2805 68.95 2739.95 134H2805L2939 0h-65.05zM3315 6.36l6.36-6.36h-65.06l-134 134h65.06L3315 6.36zM3128.95 0L3060 68.95 2994.95 134H3060L3194 0h-65.05zM3570 6.36l6.36-6.36h-65.06l-134 134h65.06L3570 6.36zM3383.95 0L3315 68.95 3249.95 134H3315L3449 0h-65.05zM3825 6.36l6.36-6.36h-65.06l-134 134h65.06L3825 6.36zM3638.95 0L3570 68.95 3504.95 134H3570L3704 0h-65.05zM4021.3 0l-134 134h65.06L4080 6.36V0h-58.7zM3893.95 0L3825 68.95 3759.95 134H3825L3959 0h-65.05zM4080 134V68.95L4014.95 134H4080z" />
</svg>