<svg id="Layer_1" data-name="Layer 1" xmlns="http://www.w3.org/2000/svg" viewBox="0 0 116 20"><defs><style>.cls-1{fill:#4690ff;}</style></defs><path class="cls-1" d="M0,19.22H9.78c5.85,0,8.58-2.48,8.58-5.74A3.9,3.9,0,0,0,15.5,9.7c2.64-.64,4.23-2.42,4.23-4.82S18.06.35,12.91.35H5.07ZM6.23,15l.94-3.47h3.61c1.54,0,2.32.51,2.32,1.48,0,1.18-1.11,2-2.91,2ZM8.17,7.87,9,4.56h3.26c1.59,0,2.27.53,2.27,1.4,0,1.18-1,1.91-2.86,1.91Z"/><path class="cls-1" d="M19.24,19.22H34.5l1.18-4.45H25.6l.81-3h9l1.11-4.13h-9L28.3,4.8h9.92L39.43.35H24.31Z"/><path class="cls-1" d="M41.67,19.22h5.25L50.75,4.93h5.66L57.62.35H41.1L39.86,4.93h5.66Z"/><path class="cls-1" d="M65.37,19.57A11.21,11.21,0,0,0,76.61,8.46C76.61,3.67,73,0,67.61,0A11.2,11.2,0,0,0,56.37,11.1C56.37,15.9,60,19.57,65.37,19.57Zm.46-4.69a3.87,3.87,0,0,1-4.12-4.18c0-2.8,2.15-6,5.44-6a3.87,3.87,0,0,1,4.12,4.18C71.27,11.67,69.15,14.88,65.83,14.88Z"/><path class="cls-1" d="M76.57,19.22h9.78c5.85,0,8.58-2.48,8.58-5.74A3.9,3.9,0,0,0,92.07,9.7c2.64-.64,4.23-2.42,4.23-4.82S94.63.35,89.48.35H81.64ZM82.8,15l.94-3.47h3.61c1.54,0,2.32.51,2.32,1.48,0,1.18-1.11,2-2.91,2Zm1.94-7.14.86-3.31h3.26c1.59,0,2.27.53,2.27,1.4,0,1.18-1,1.91-2.86,1.91Z"/><path class="cls-1" d="M95.81,19.22h15.26l1.18-4.45H102.17l.81-3h9l1.11-4.13h-9l.78-2.85h9.92L116,.35H100.88Z"/></svg>