<svg id="Layer_1" data-name="Layer 1" xmlns="http://www.w3.org/2000/svg" viewBox="0 0 56.3 56.3"><defs><style>.cls-1{fill:#ebf3ff;}</style></defs><path class="cls-1" d="M24,1.68a5.87,5.87,0,0,1,8.22,0,5.87,5.87,0,0,0,5.57,1.49A5.87,5.87,0,0,1,45,7.28,5.89,5.89,0,0,0,49,11.36a5.86,5.86,0,0,1,4.11,7.11A5.87,5.87,0,0,0,54.63,24a5.89,5.89,0,0,1,0,8.22,5.87,5.87,0,0,0-1.5,5.57A5.87,5.87,0,0,1,49,45,5.88,5.88,0,0,0,45,49a5.87,5.87,0,0,1-7.12,4.11,5.87,5.87,0,0,0-5.57,1.5,5.89,5.89,0,0,1-8.22,0,5.87,5.87,0,0,0-5.57-1.5A5.86,5.86,0,0,1,11.36,49,5.89,5.89,0,0,0,7.28,45a5.87,5.87,0,0,1-4.11-7.12,5.87,5.87,0,0,0-1.49-5.57,5.87,5.87,0,0,1,0-8.22,5.86,5.86,0,0,0,1.49-5.57,5.86,5.86,0,0,1,4.11-7.11,5.9,5.9,0,0,0,4.08-4.08,5.86,5.86,0,0,1,7.11-4.11A5.86,5.86,0,0,0,24,1.68Z"/></svg>