<?xml version="1.0" standalone="no"?>
<!DOCTYPE svg PUBLIC "-//W3C//DTD SVG 20010904//EN"
 "http://www.w3.org/TR/2001/REC-SVG-20010904/DTD/svg10.dtd">
<svg version="1.0" xmlns="http://www.w3.org/2000/svg"
 width="700.000000pt" height="700.000000pt" viewBox="0 0 700.000000 700.000000"
 preserveAspectRatio="xMidYMid meet">
<metadata>
Created by potrace 1.11, written by Peter Selinger 2001-2013
</metadata>
<g transform="translate(0.000000,700.000000) scale(0.100000,-0.100000)"
fill="#000000" stroke="none">
<path d="M0 3500 l0 -3500 3500 0 3500 0 0 3500 0 3500 -3500 0 -3500 0 0
-3500z m4395 2070 c677 -49 1069 -282 1201 -715 26 -84 28 -102 28 -275 0
-158 -4 -196 -22 -262 -51 -187 -136 -333 -267 -464 -134 -132 -285 -222 -498
-293 l-107 -37 37 -13 c378 -133 607 -509 564 -925 -45 -451 -320 -790 -790
-976 -207 -82 -452 -136 -731 -160 -84 -7 -500 -10 -1276 -8 l-1151 3 546
2068 545 2067 890 0 c495 0 953 -5 1031 -10z"/>
<path d="M3310 4612 c-5 -21 -44 -178 -85 -348 -42 -170 -78 -315 -80 -322 -4
-11 82 -13 473 -10 458 4 480 5 550 26 222 67 330 183 340 364 8 130 -38 212
-148 268 -108 54 -167 60 -624 60 l-415 0 -11 -38z"/>
<path d="M2827 2752 c-53 -202 -97 -373 -97 -380 0 -11 93 -13 508 -9 482 3
511 5 585 25 164 45 288 135 343 248 40 82 46 207 14 282 -26 61 -88 121 -154
151 -106 46 -165 51 -648 51 l-453 0 -98 -368z"/>
</g>
</svg>
